# MagicaVoxel @ Ephtracy

# group
o 

# material
mtllib consol1.mtl
usemtl palette

# normals
vn -1 0 0
vn 1 0 0
vn 0 0 1
vn 0 0 -1
vn 0 -1 0
vn 0 1 0

# texcoords
vt 0.185547 0.5
vt 0.884766 0.5
vt 0.900391 0.5
vt 0.931641 0.5
vt 0.955078 0.5
vt 0.958984 0.5
vt 0.974609 0.5

# verts
v -2 0.2 1.3
v -2 0.2 -0.7
v -2 0.4 1.3
v -2 0.4 -0.7
v -1.8 0.1 1.3
v -1.8 0.1 -0.7
v -1.8 0.2 1.3
v -1.8 0.2 -0.7
v -0.2 0.4 1.1
v -0.2 0.4 0.7
v -0.2 0.4 0.5
v -0.2 0.4 0.0999999
v -0.2 0.4 -0.1
v -0.2 0.4 -0.5
v -0.2 0.5 1.1
v -0.2 0.5 0.7
v -0.2 0.5 0.5
v -0.2 0.5 0.0999999
v -0.2 0.5 -0.1
v -0.2 0.5 -0.5
v 0.2 0.4 1.1
v 0.2 0.4 0.7
v 0.2 0.4 0.5
v 0.2 0.4 0.0999999
v 0.2 0.4 -0.1
v 0.2 0.4 -0.5
v 0.2 0.5 1.1
v 0.2 0.5 0.7
v 0.2 0.5 0.5
v 0.2 0.5 0.0999999
v 0.2 0.5 -0.1
v 0.2 0.5 -0.5
v 0.8 0.4 1.1
v 0.8 0.4 0.7
v 0.8 0.4 0.5
v 0.8 0.4 0.0999999
v 0.8 0.4 -0.1
v 0.8 0.4 -0.5
v 0.8 0.5 1.1
v 0.8 0.5 0.7
v 0.8 0.5 0.5
v 0.8 0.5 0.0999999
v 0.8 0.5 -0.1
v 0.8 0.5 -0.5
v 1.4 0.4 1.1
v 1.4 0.4 0.7
v 1.4 0.4 0.5
v 1.4 0.4 0.0999999
v 1.4 0.4 -0.1
v 1.4 0.4 -0.5
v 1.4 0.5 1.1
v 1.4 0.5 0.7
v 1.4 0.5 0.5
v 1.4 0.5 0.0999999
v 1.4 0.5 -0.1
v 1.4 0.5 -0.5
v 2.38419e-007 0.4 1.1
v 2.38419e-007 0.4 0.7
v 2.38419e-007 0.4 0.5
v 2.38419e-007 0.4 0.0999999
v 2.38419e-007 0.4 -0.1
v 2.38419e-007 0.4 -0.5
v 2.38419e-007 0.5 1.1
v 2.38419e-007 0.5 0.7
v 2.38419e-007 0.5 0.5
v 2.38419e-007 0.5 0.0999999
v 2.38419e-007 0.5 -0.1
v 2.38419e-007 0.5 -0.5
v 0.6 0.4 1.1
v 0.6 0.4 0.7
v 0.6 0.4 0.5
v 0.6 0.4 0.0999999
v 0.6 0.4 -0.1
v 0.6 0.4 -0.5
v 0.6 0.5 1.1
v 0.6 0.5 0.7
v 0.6 0.5 0.5
v 0.6 0.5 0.0999999
v 0.6 0.5 -0.1
v 0.6 0.5 -0.5
v 1.2 0.4 1.1
v 1.2 0.4 0.7
v 1.2 0.4 0.5
v 1.2 0.4 0.0999999
v 1.2 0.4 -0.1
v 1.2 0.4 -0.5
v 1.2 0.5 1.1
v 1.2 0.5 0.7
v 1.2 0.5 0.5
v 1.2 0.5 0.0999999
v 1.2 0.5 -0.1
v 1.2 0.5 -0.5
v 1.8 0.4 1.1
v 1.8 0.4 0.7
v 1.8 0.4 0.5
v 1.8 0.4 0.0999999
v 1.8 0.4 -0.1
v 1.8 0.4 -0.5
v 1.8 0.5 1.1
v 1.8 0.5 0.7
v 1.8 0.5 0.5
v 1.8 0.5 0.0999999
v 1.8 0.5 -0.1
v 1.8 0.5 -0.5
v 2 0.1 1.3
v 2 0.1 -0.7
v 2 0.4 1.3
v 2 0.4 -0.7
v -2 0.2 1.3
v -2 0.4 1.3
v -1.8 0.1 1.3
v -1.8 0.2 1.3
v 2 0.1 1.3
v 2 0.4 1.3
v -0.2 0.4 1.1
v -0.2 0.5 1.1
v 2.38419e-007 0.4 1.1
v 2.38419e-007 0.5 1.1
v 0.2 0.4 1.1
v 0.2 0.5 1.1
v 0.6 0.4 1.1
v 0.6 0.5 1.1
v 0.8 0.4 1.1
v 0.8 0.5 1.1
v 1.2 0.4 1.1
v 1.2 0.5 1.1
v 1.4 0.4 1.1
v 1.4 0.5 1.1
v 1.8 0.4 1.1
v 1.8 0.5 1.1
v -0.2 0.4 0.5
v -0.2 0.5 0.5
v 2.38419e-007 0.4 0.5
v 2.38419e-007 0.5 0.5
v 0.2 0.4 0.5
v 0.2 0.5 0.5
v 0.6 0.4 0.5
v 0.6 0.5 0.5
v 0.8 0.4 0.5
v 0.8 0.5 0.5
v 1.2 0.4 0.5
v 1.2 0.5 0.5
v 1.4 0.4 0.5
v 1.4 0.5 0.5
v 1.8 0.4 0.5
v 1.8 0.5 0.5
v -0.2 0.4 -0.1
v -0.2 0.5 -0.1
v 2.38419e-007 0.4 -0.1
v 2.38419e-007 0.5 -0.1
v 0.2 0.4 -0.1
v 0.2 0.5 -0.1
v 0.6 0.4 -0.1
v 0.6 0.5 -0.1
v 0.8 0.4 -0.1
v 0.8 0.5 -0.1
v 1.2 0.4 -0.1
v 1.2 0.5 -0.1
v 1.4 0.4 -0.1
v 1.4 0.5 -0.1
v 1.8 0.4 -0.1
v 1.8 0.5 -0.1
v -0.2 0.4 0.7
v -0.2 0.5 0.7
v 2.38419e-007 0.4 0.7
v 2.38419e-007 0.5 0.7
v 0.2 0.4 0.7
v 0.2 0.5 0.7
v 0.6 0.4 0.7
v 0.6 0.5 0.7
v 0.8 0.4 0.7
v 0.8 0.5 0.7
v 1.2 0.4 0.7
v 1.2 0.5 0.7
v 1.4 0.4 0.7
v 1.4 0.5 0.7
v 1.8 0.4 0.7
v 1.8 0.5 0.7
v -0.2 0.4 0.0999999
v -0.2 0.5 0.0999999
v 2.38419e-007 0.4 0.0999999
v 2.38419e-007 0.5 0.0999999
v 0.2 0.4 0.0999999
v 0.2 0.5 0.0999999
v 0.6 0.4 0.0999999
v 0.6 0.5 0.0999999
v 0.8 0.4 0.0999999
v 0.8 0.5 0.0999999
v 1.2 0.4 0.0999999
v 1.2 0.5 0.0999999
v 1.4 0.4 0.0999999
v 1.4 0.5 0.0999999
v 1.8 0.4 0.0999999
v 1.8 0.5 0.0999999
v -0.2 0.4 -0.5
v -0.2 0.5 -0.5
v 2.38419e-007 0.4 -0.5
v 2.38419e-007 0.5 -0.5
v 0.2 0.4 -0.5
v 0.2 0.5 -0.5
v 0.6 0.4 -0.5
v 0.6 0.5 -0.5
v 0.8 0.4 -0.5
v 0.8 0.5 -0.5
v 1.2 0.4 -0.5
v 1.2 0.5 -0.5
v 1.4 0.4 -0.5
v 1.4 0.5 -0.5
v 1.8 0.4 -0.5
v 1.8 0.5 -0.5
v -2 0.2 -0.7
v -2 0.4 -0.7
v -1.8 0.1 -0.7
v -1.8 0.2 -0.7
v 2 0.1 -0.7
v 2 0.4 -0.7
v -1.8 0.1 1.3
v 2 0.1 1.3
v -1.8 0.1 -0.7
v 2 0.1 -0.7
v -2 0.2 1.3
v -1.8 0.2 1.3
v -2 0.2 -0.7
v -1.8 0.2 -0.7
v -2 0.4 1.3
v 2 0.4 1.3
v -1.9 0.4 1.1
v -1.6 0.4 1.1
v -1.5 0.4 1.1
v -0.4 0.4 1.1
v -0.2 0.4 1.1
v 2.38419e-007 0.4 1.1
v 0.2 0.4 1.1
v 0.6 0.4 1.1
v 0.8 0.4 1.1
v 1.2 0.4 1.1
v 1.4 0.4 1.1
v 1.8 0.4 1.1
v -1.9 0.4 1
v -1.8 0.4 1
v -1.7 0.4 1
v -1.6 0.4 1
v -1.3 0.4 1
v -1.2 0.4 1
v -1.9 0.4 0.9
v -1.8 0.4 0.9
v -1.7 0.4 0.9
v -1.6 0.4 0.9
v -1.3 0.4 0.9
v -1.2 0.4 0.9
v -1.3 0.4 0.8
v -1.2 0.4 0.8
v -1.3 0.4 0.7
v -1.2 0.4 0.7
v -0.2 0.4 0.7
v 2.38419e-007 0.4 0.7
v 0.2 0.4 0.7
v 0.6 0.4 0.7
v 0.8 0.4 0.7
v 1.2 0.4 0.7
v 1.4 0.4 0.7
v 1.8 0.4 0.7
v -1.3 0.4 0.6
v -1.2 0.4 0.6
v -1.3 0.4 0.5
v -1.2 0.4 0.5
v -0.2 0.4 0.5
v 2.38419e-007 0.4 0.5
v 0.2 0.4 0.5
v 0.6 0.4 0.5
v 0.8 0.4 0.5
v 1.2 0.4 0.5
v 1.4 0.4 0.5
v 1.8 0.4 0.5
v -0.2 0.4 0.0999999
v 2.38419e-007 0.4 0.0999999
v 0.2 0.4 0.0999999
v 0.6 0.4 0.0999999
v 0.8 0.4 0.0999999
v 1.2 0.4 0.0999999
v 1.4 0.4 0.0999999
v 1.8 0.4 0.0999999
v -0.2 0.4 -0.1
v 2.38419e-007 0.4 -0.1
v 0.2 0.4 -0.1
v 0.6 0.4 -0.1
v 0.8 0.4 -0.1
v 1.2 0.4 -0.1
v 1.4 0.4 -0.1
v 1.8 0.4 -0.1
v -1.6 0.4 -0.3
v -1.5 0.4 -0.3
v -1.9 0.4 -0.5
v -0.4 0.4 -0.5
v -0.2 0.4 -0.5
v 2.38419e-007 0.4 -0.5
v 0.2 0.4 -0.5
v 0.6 0.4 -0.5
v 0.8 0.4 -0.5
v 1.2 0.4 -0.5
v 1.4 0.4 -0.5
v 1.8 0.4 -0.5
v -2 0.4 -0.7
v 2 0.4 -0.7
v -0.2 0.5 1.1
v 2.38419e-007 0.5 1.1
v 0.2 0.5 1.1
v 0.6 0.5 1.1
v 0.8 0.5 1.1
v 1.2 0.5 1.1
v 1.4 0.5 1.1
v 1.8 0.5 1.1
v 0.3 0.5 1
v 0.4 0.5 1
v 0.9 0.5 1
v 1.1 0.5 1
v 1.6 0.5 1
v 1.7 0.5 1
v 0.3 0.5 0.9
v 0.4 0.5 0.9
v 0.9 0.5 0.9
v 1.1 0.5 0.9
v 1.6 0.5 0.9
v 1.7 0.5 0.9
v -0.2 0.5 0.7
v 2.38419e-007 0.5 0.7
v 0.2 0.5 0.7
v 0.6 0.5 0.7
v 0.8 0.5 0.7
v 1.2 0.5 0.7
v 1.4 0.5 0.7
v 1.8 0.5 0.7
v -0.2 0.5 0.5
v 2.38419e-007 0.5 0.5
v 0.2 0.5 0.5
v 0.6 0.5 0.5
v 0.8 0.5 0.5
v 1.2 0.5 0.5
v 1.4 0.5 0.5
v 1.8 0.5 0.5
v 0.3 0.5 0.4
v 0.5 0.5 0.4
v 1 0.5 0.4
v 1.1 0.5 0.4
v 0.9 0.5 0.3
v 1 0.5 0.3
v 1.5 0.5 0.3
v 1.6 0.5 0.3
v 0.3 0.5 0.2
v 0.5 0.5 0.2
v 0.9 0.5 0.2
v 1.1 0.5 0.2
v 1.5 0.5 0.2
v 1.6 0.5 0.2
v -0.2 0.5 0.0999999
v 2.38419e-007 0.5 0.0999999
v 0.2 0.5 0.0999999
v 0.6 0.5 0.0999999
v 0.8 0.5 0.0999999
v 1.2 0.5 0.0999999
v 1.4 0.5 0.0999999
v 1.8 0.5 0.0999999
v -0.2 0.5 -0.1
v 2.38419e-007 0.5 -0.1
v 0.2 0.5 -0.1
v 0.6 0.5 -0.1
v 0.8 0.5 -0.1
v 1.2 0.5 -0.1
v 1.4 0.5 -0.1
v 1.8 0.5 -0.1
v 0.3 0.5 -0.2
v 0.5 0.5 -0.2
v 0.4 0.5 -0.3
v 0.5 0.5 -0.3
v 1 0.5 -0.3
v 1.1 0.5 -0.3
v 0.3 0.5 -0.4
v 0.4 0.5 -0.4
v 1 0.5 -0.4
v 1.1 0.5 -0.4
v -0.2 0.5 -0.5
v 2.38419e-007 0.5 -0.5
v 0.2 0.5 -0.5
v 0.6 0.5 -0.5
v 0.8 0.5 -0.5
v 1.2 0.5 -0.5
v 1.4 0.5 -0.5
v 1.8 0.5 -0.5

# faces
f 3/7/1 2/7/1 1/7/1
f 4/7/1 2/7/1 3/7/1
f 7/7/1 6/7/1 5/7/1
f 8/7/1 6/7/1 7/7/1
f 15/4/1 10/4/1 9/4/1
f 16/4/1 10/4/1 15/4/1
f 17/1/1 12/1/1 11/1/1
f 18/1/1 12/1/1 17/1/1
f 19/3/1 14/3/1 13/3/1
f 20/3/1 14/3/1 19/3/1
f 27/6/1 22/6/1 21/6/1
f 28/6/1 22/6/1 27/6/1
f 29/6/1 24/6/1 23/6/1
f 30/6/1 24/6/1 29/6/1
f 31/6/1 26/6/1 25/6/1
f 32/6/1 26/6/1 31/6/1
f 39/6/1 34/6/1 33/6/1
f 40/6/1 34/6/1 39/6/1
f 41/6/1 36/6/1 35/6/1
f 42/6/1 36/6/1 41/6/1
f 43/6/1 38/6/1 37/6/1
f 44/6/1 38/6/1 43/6/1
f 51/6/1 46/6/1 45/6/1
f 52/6/1 46/6/1 51/6/1
f 53/6/1 48/6/1 47/6/1
f 54/6/1 48/6/1 53/6/1
f 55/6/1 50/6/1 49/6/1
f 56/6/1 50/6/1 55/6/1
f 57/4/2 58/4/2 63/4/2
f 63/4/2 58/4/2 64/4/2
f 59/1/2 60/1/2 65/1/2
f 65/1/2 60/1/2 66/1/2
f 61/3/2 62/3/2 67/3/2
f 67/3/2 62/3/2 68/3/2
f 69/6/2 70/6/2 75/6/2
f 75/6/2 70/6/2 76/6/2
f 71/6/2 72/6/2 77/6/2
f 77/6/2 72/6/2 78/6/2
f 73/6/2 74/6/2 79/6/2
f 79/6/2 74/6/2 80/6/2
f 81/6/2 82/6/2 87/6/2
f 87/6/2 82/6/2 88/6/2
f 83/6/2 84/6/2 89/6/2
f 89/6/2 84/6/2 90/6/2
f 85/6/2 86/6/2 91/6/2
f 91/6/2 86/6/2 92/6/2
f 93/6/2 94/6/2 99/6/2
f 99/6/2 94/6/2 100/6/2
f 95/6/2 96/6/2 101/6/2
f 101/6/2 96/6/2 102/6/2
f 97/6/2 98/6/2 103/6/2
f 103/6/2 98/6/2 104/6/2
f 105/7/2 106/7/2 107/7/2
f 107/7/2 106/7/2 108/7/2
f 112/7/3 110/7/3 109/7/3
f 113/7/3 112/7/3 111/7/3
f 114/7/3 110/7/3 112/7/3
f 114/7/3 112/7/3 113/7/3
f 117/4/3 116/4/3 115/4/3
f 118/4/3 116/4/3 117/4/3
f 121/6/3 120/6/3 119/6/3
f 122/6/3 120/6/3 121/6/3
f 125/6/3 124/6/3 123/6/3
f 126/6/3 124/6/3 125/6/3
f 129/6/3 128/6/3 127/6/3
f 130/6/3 128/6/3 129/6/3
f 133/1/3 132/1/3 131/1/3
f 134/1/3 132/1/3 133/1/3
f 137/6/3 136/6/3 135/6/3
f 138/6/3 136/6/3 137/6/3
f 141/6/3 140/6/3 139/6/3
f 142/6/3 140/6/3 141/6/3
f 145/6/3 144/6/3 143/6/3
f 146/6/3 144/6/3 145/6/3
f 149/3/3 148/3/3 147/3/3
f 150/3/3 148/3/3 149/3/3
f 153/6/3 152/6/3 151/6/3
f 154/6/3 152/6/3 153/6/3
f 157/6/3 156/6/3 155/6/3
f 158/6/3 156/6/3 157/6/3
f 161/6/3 160/6/3 159/6/3
f 162/6/3 160/6/3 161/6/3
f 163/4/4 164/4/4 165/4/4
f 165/4/4 164/4/4 166/4/4
f 167/6/4 168/6/4 169/6/4
f 169/6/4 168/6/4 170/6/4
f 171/6/4 172/6/4 173/6/4
f 173/6/4 172/6/4 174/6/4
f 175/6/4 176/6/4 177/6/4
f 177/6/4 176/6/4 178/6/4
f 179/1/4 180/1/4 181/1/4
f 181/1/4 180/1/4 182/1/4
f 183/6/4 184/6/4 185/6/4
f 185/6/4 184/6/4 186/6/4
f 187/6/4 188/6/4 189/6/4
f 189/6/4 188/6/4 190/6/4
f 191/6/4 192/6/4 193/6/4
f 193/6/4 192/6/4 194/6/4
f 195/3/4 196/3/4 197/3/4
f 197/3/4 196/3/4 198/3/4
f 199/6/4 200/6/4 201/6/4
f 201/6/4 200/6/4 202/6/4
f 203/6/4 204/6/4 205/6/4
f 205/6/4 204/6/4 206/6/4
f 207/6/4 208/6/4 209/6/4
f 209/6/4 208/6/4 210/6/4
f 211/7/4 212/7/4 214/7/4
f 213/7/4 214/7/4 215/7/4
f 214/7/4 212/7/4 216/7/4
f 215/7/4 214/7/4 216/7/4
f 219/7/5 218/7/5 217/7/5
f 220/7/5 218/7/5 219/7/5
f 223/7/5 222/7/5 221/7/5
f 224/7/5 222/7/5 223/7/5
f 225/7/6 226/7/6 227/7/6
f 227/7/6 226/7/6 228/7/6
f 228/7/6 226/7/6 229/7/6
f 229/7/6 226/7/6 230/7/6
f 230/7/6 226/7/6 231/7/6
f 231/7/6 226/7/6 232/7/6
f 232/7/6 226/7/6 233/7/6
f 233/7/6 226/7/6 234/7/6
f 234/7/6 226/7/6 235/7/6
f 235/7/6 226/7/6 236/7/6
f 236/7/6 226/7/6 237/7/6
f 237/7/6 226/7/6 238/7/6
f 225/7/6 227/7/6 239/7/6
f 227/5/6 228/5/6 239/5/6
f 239/5/6 228/5/6 240/5/6
f 240/5/6 228/5/6 241/5/6
f 228/2/6 229/2/6 242/2/6
f 241/5/6 228/5/6 242/5/6
f 229/5/6 230/5/6 243/5/6
f 243/5/6 230/5/6 244/5/6
f 225/7/6 239/7/6 245/7/6
f 239/2/6 240/2/6 245/2/6
f 240/5/6 241/5/6 246/5/6
f 245/2/6 240/2/6 246/2/6
f 241/2/6 242/2/6 247/2/6
f 246/5/6 241/5/6 247/5/6
f 242/2/6 229/2/6 248/2/6
f 247/2/6 242/2/6 248/2/6
f 243/2/6 244/2/6 249/2/6
f 229/5/6 243/5/6 249/5/6
f 244/5/6 230/5/6 250/5/6
f 249/2/6 244/2/6 250/2/6
f 229/5/6 249/5/6 251/5/6
f 249/5/6 250/5/6 251/5/6
f 250/5/6 230/5/6 252/5/6
f 251/5/6 250/5/6 252/5/6
f 229/5/6 251/5/6 253/5/6
f 251/2/6 252/2/6 253/2/6
f 252/5/6 230/5/6 254/5/6
f 253/2/6 252/2/6 254/2/6
f 230/7/6 231/7/6 255/7/6
f 232/7/6 233/7/6 256/7/6
f 256/7/6 233/7/6 257/7/6
f 234/7/6 235/7/6 258/7/6
f 258/7/6 235/7/6 259/7/6
f 236/7/6 237/7/6 260/7/6
f 260/7/6 237/7/6 261/7/6
f 238/7/6 226/7/6 262/7/6
f 229/5/6 253/5/6 263/5/6
f 253/5/6 254/5/6 263/5/6
f 254/5/6 230/5/6 264/5/6
f 263/5/6 254/5/6 264/5/6
f 229/5/6 263/5/6 265/5/6
f 263/2/6 264/2/6 265/2/6
f 264/5/6 230/5/6 266/5/6
f 265/2/6 264/2/6 266/2/6
f 260/7/6 261/7/6 267/7/6
f 258/7/6 259/7/6 267/7/6
f 256/7/6 257/7/6 267/7/6
f 230/7/6 255/7/6 267/7/6
f 259/7/6 260/7/6 267/7/6
f 261/7/6 262/7/6 267/7/6
f 257/7/6 258/7/6 267/7/6
f 255/7/6 256/7/6 267/7/6
f 267/7/6 262/7/6 268/7/6
f 268/7/6 262/7/6 269/7/6
f 269/7/6 262/7/6 270/7/6
f 270/7/6 262/7/6 271/7/6
f 271/7/6 262/7/6 272/7/6
f 272/7/6 262/7/6 273/7/6
f 262/7/6 226/7/6 274/7/6
f 273/7/6 262/7/6 274/7/6
f 230/7/6 267/7/6 275/7/6
f 268/7/6 269/7/6 276/7/6
f 276/7/6 269/7/6 277/7/6
f 270/7/6 271/7/6 278/7/6
f 278/7/6 271/7/6 279/7/6
f 272/7/6 273/7/6 280/7/6
f 280/7/6 273/7/6 281/7/6
f 274/7/6 226/7/6 282/7/6
f 278/7/6 279/7/6 283/7/6
f 281/7/6 282/7/6 283/7/6
f 280/7/6 281/7/6 283/7/6
f 276/7/6 277/7/6 283/7/6
f 279/7/6 280/7/6 283/7/6
f 230/7/6 275/7/6 283/7/6
f 277/7/6 278/7/6 283/7/6
f 275/7/6 276/7/6 283/7/6
f 283/7/6 282/7/6 284/7/6
f 284/7/6 282/7/6 285/7/6
f 285/7/6 282/7/6 286/7/6
f 286/7/6 282/7/6 287/7/6
f 287/7/6 282/7/6 288/7/6
f 288/7/6 282/7/6 289/7/6
f 282/7/6 226/7/6 290/7/6
f 289/7/6 282/7/6 290/7/6
f 246/5/6 247/5/6 291/5/6
f 248/2/6 229/2/6 291/2/6
f 245/5/6 246/5/6 291/5/6
f 247/5/6 248/5/6 291/5/6
f 265/5/6 266/5/6 292/5/6
f 291/2/6 229/2/6 292/2/6
f 229/5/6 265/5/6 292/5/6
f 245/5/6 291/5/6 293/5/6
f 225/7/6 245/7/6 293/7/6
f 291/5/6 292/5/6 293/5/6
f 266/5/6 230/5/6 294/5/6
f 293/5/6 292/5/6 294/5/6
f 292/5/6 266/5/6 294/5/6
f 230/7/6 283/7/6 294/7/6
f 294/7/6 283/7/6 295/7/6
f 284/7/6 285/7/6 296/7/6
f 296/7/6 285/7/6 297/7/6
f 286/7/6 287/7/6 298/7/6
f 298/7/6 287/7/6 299/7/6
f 288/7/6 289/7/6 300/7/6
f 300/7/6 289/7/6 301/7/6
f 290/7/6 226/7/6 302/7/6
f 225/7/6 293/7/6 303/7/6
f 301/7/6 302/7/6 303/7/6
f 300/7/6 301/7/6 303/7/6
f 296/7/6 297/7/6 303/7/6
f 299/7/6 300/7/6 303/7/6
f 294/7/6 295/7/6 303/7/6
f 297/7/6 298/7/6 303/7/6
f 298/7/6 299/7/6 303/7/6
f 295/7/6 296/7/6 303/7/6
f 293/7/6 294/7/6 303/7/6
f 302/7/6 226/7/6 304/7/6
f 303/7/6 302/7/6 304/7/6
f 307/6/6 308/6/6 313/6/6
f 313/6/6 308/6/6 314/6/6
f 309/6/6 310/6/6 315/6/6
f 315/6/6 310/6/6 316/6/6
f 311/6/6 312/6/6 317/6/6
f 317/6/6 312/6/6 318/6/6
f 307/6/6 313/6/6 319/6/6
f 313/5/6 314/5/6 319/5/6
f 314/6/6 308/6/6 320/6/6
f 319/5/6 314/5/6 320/5/6
f 309/6/6 315/6/6 321/6/6
f 315/5/6 316/5/6 321/5/6
f 316/6/6 310/6/6 322/6/6
f 321/5/6 316/5/6 322/5/6
f 317/5/6 318/5/6 323/5/6
f 311/6/6 317/6/6 323/6/6
f 318/6/6 312/6/6 324/6/6
f 323/5/6 318/5/6 324/5/6
f 305/4/6 306/4/6 325/4/6
f 325/4/6 306/4/6 326/4/6
f 307/6/6 319/6/6 327/6/6
f 319/6/6 320/6/6 327/6/6
f 320/6/6 308/6/6 328/6/6
f 327/6/6 320/6/6 328/6/6
f 309/6/6 321/6/6 329/6/6
f 321/6/6 322/6/6 329/6/6
f 322/6/6 310/6/6 330/6/6
f 329/6/6 322/6/6 330/6/6
f 311/6/6 323/6/6 331/6/6
f 323/6/6 324/6/6 331/6/6
f 324/6/6 312/6/6 332/6/6
f 331/6/6 324/6/6 332/6/6
f 335/6/6 336/6/6 341/6/6
f 341/6/6 336/6/6 342/6/6
f 337/6/6 338/6/6 343/6/6
f 343/6/6 338/6/6 344/6/6
f 337/6/6 343/6/6 345/6/6
f 343/5/6 344/5/6 346/5/6
f 345/6/6 343/6/6 346/6/6
f 339/6/6 340/6/6 347/6/6
f 347/6/6 340/6/6 348/6/6
f 335/6/6 341/6/6 349/6/6
f 341/5/6 342/5/6 349/5/6
f 342/6/6 336/6/6 350/6/6
f 349/5/6 342/5/6 350/5/6
f 337/6/6 345/6/6 351/6/6
f 345/5/6 346/5/6 351/5/6
f 346/5/6 344/5/6 352/5/6
f 351/5/6 346/5/6 352/5/6
f 344/6/6 338/6/6 352/6/6
f 347/5/6 348/5/6 353/5/6
f 339/6/6 347/6/6 353/6/6
f 348/6/6 340/6/6 354/6/6
f 353/5/6 348/5/6 354/5/6
f 333/1/6 334/1/6 355/1/6
f 355/1/6 334/1/6 356/1/6
f 335/6/6 349/6/6 357/6/6
f 349/6/6 350/6/6 357/6/6
f 350/6/6 336/6/6 358/6/6
f 357/6/6 350/6/6 358/6/6
f 337/6/6 351/6/6 359/6/6
f 351/6/6 352/6/6 359/6/6
f 352/6/6 338/6/6 360/6/6
f 359/6/6 352/6/6 360/6/6
f 339/6/6 353/6/6 361/6/6
f 353/6/6 354/6/6 361/6/6
f 354/6/6 340/6/6 362/6/6
f 361/6/6 354/6/6 362/6/6
f 365/6/6 366/6/6 371/6/6
f 371/6/6 366/6/6 372/6/6
f 371/5/6 372/5/6 373/5/6
f 372/6/6 366/6/6 374/6/6
f 373/5/6 372/5/6 374/5/6
f 367/6/6 368/6/6 375/6/6
f 375/6/6 368/6/6 376/6/6
f 365/6/6 371/6/6 377/6/6
f 371/5/6 373/5/6 377/5/6
f 373/6/6 374/6/6 378/6/6
f 377/5/6 373/5/6 378/5/6
f 375/5/6 376/5/6 379/5/6
f 367/6/6 375/6/6 379/6/6
f 376/6/6 368/6/6 380/6/6
f 379/5/6 376/5/6 380/5/6
f 363/3/6 364/3/6 381/3/6
f 381/3/6 364/3/6 382/3/6
f 365/6/6 377/6/6 383/6/6
f 377/6/6 378/6/6 383/6/6
f 374/6/6 366/6/6 384/6/6
f 383/6/6 378/6/6 384/6/6
f 378/6/6 374/6/6 384/6/6
f 367/6/6 379/6/6 385/6/6
f 379/6/6 380/6/6 385/6/6
f 380/6/6 368/6/6 386/6/6
f 385/6/6 380/6/6 386/6/6
f 369/6/6 370/6/6 387/6/6
f 387/6/6 370/6/6 388/6/6
