# MagicaVoxel @ Ephtracy

# group
o 

# material
mtllib HouseKitblockRoofcreme.mtl
usemtl palette

# normals
vn -1 0 0
vn 1 0 0
vn 0 0 1
vn 0 0 -1
vn 0 -1 0
vn 0 1 0

# texcoords
vt 0.00585938 0.5
vt 0.0605469 0.5

# verts
v -1.9 0 1.9
v -1.9 0 -1.9
v -1.9 0.1 1.9
v -1.9 0.1 1.6
v -1.9 0.1 -1.6
v -1.9 0.1 -1.9
v -1.9 0.2 1.9
v -1.9 0.2 1.7
v -1.9 0.2 1.6
v -1.9 0.2 1.4
v -1.9 0.2 -1.4
v -1.9 0.2 -1.6
v -1.9 0.2 -1.7
v -1.9 0.2 -1.9
v -1.9 0.3 1.7
v -1.9 0.3 1.5
v -1.9 0.3 1.4
v -1.9 0.3 1.2
v -1.9 0.3 -1.2
v -1.9 0.3 -1.4
v -1.9 0.3 -1.5
v -1.9 0.3 -1.7
v -1.9 0.4 1.5
v -1.9 0.4 1.3
v -1.9 0.4 1.2
v -1.9 0.4 1
v -1.9 0.4 -1
v -1.9 0.4 -1.2
v -1.9 0.4 -1.3
v -1.9 0.4 -1.5
v -1.9 0.5 1.3
v -1.9 0.5 1.1
v -1.9 0.5 1
v -1.9 0.5 0.8
v -1.9 0.5 -0.8
v -1.9 0.5 -1
v -1.9 0.5 -1.1
v -1.9 0.5 -1.3
v -1.9 0.6 1.1
v -1.9 0.6 0.9
v -1.9 0.6 0.8
v -1.9 0.6 0.6
v -1.9 0.6 -0.6
v -1.9 0.6 -0.8
v -1.9 0.6 -0.9
v -1.9 0.6 -1.1
v -1.9 0.7 0.9
v -1.9 0.7 0.7
v -1.9 0.7 0.6
v -1.9 0.7 0.4
v -1.9 0.7 -0.4
v -1.9 0.7 -0.6
v -1.9 0.7 -0.7
v -1.9 0.7 -0.9
v -1.9 0.8 0.7
v -1.9 0.8 0.5
v -1.9 0.8 0.4
v -1.9 0.8 0.2
v -1.9 0.8 -0.2
v -1.9 0.8 -0.4
v -1.9 0.8 -0.5
v -1.9 0.8 -0.7
v -1.9 0.9 0.5
v -1.9 0.9 0.3
v -1.9 0.9 0.2
v -1.9 0.9 -0.2
v -1.9 0.9 -0.3
v -1.9 0.9 -0.5
v -1.9 1 0.3
v -1.9 1 0.1
v -1.9 1 -0.1
v -1.9 1 -0.3
v -1.9 1.1 0.1
v -1.9 1.1 -0.1
v 1.9 0 1.9
v 1.9 0 -1.9
v 1.9 0.1 1.9
v 1.9 0.1 1.6
v 1.9 0.1 -1.6
v 1.9 0.1 -1.9
v 1.9 0.2 1.9
v 1.9 0.2 1.7
v 1.9 0.2 1.6
v 1.9 0.2 1.4
v 1.9 0.2 -1.4
v 1.9 0.2 -1.6
v 1.9 0.2 -1.7
v 1.9 0.2 -1.9
v 1.9 0.3 1.7
v 1.9 0.3 1.5
v 1.9 0.3 1.4
v 1.9 0.3 1.2
v 1.9 0.3 -1.2
v 1.9 0.3 -1.4
v 1.9 0.3 -1.5
v 1.9 0.3 -1.7
v 1.9 0.4 1.5
v 1.9 0.4 1.3
v 1.9 0.4 1.2
v 1.9 0.4 1
v 1.9 0.4 -1
v 1.9 0.4 -1.2
v 1.9 0.4 -1.3
v 1.9 0.4 -1.5
v 1.9 0.5 1.3
v 1.9 0.5 1.1
v 1.9 0.5 1
v 1.9 0.5 0.8
v 1.9 0.5 -0.8
v 1.9 0.5 -1
v 1.9 0.5 -1.1
v 1.9 0.5 -1.3
v 1.9 0.6 1.1
v 1.9 0.6 0.9
v 1.9 0.6 0.8
v 1.9 0.6 0.6
v 1.9 0.6 -0.6
v 1.9 0.6 -0.8
v 1.9 0.6 -0.9
v 1.9 0.6 -1.1
v 1.9 0.7 0.9
v 1.9 0.7 0.7
v 1.9 0.7 0.6
v 1.9 0.7 0.4
v 1.9 0.7 -0.4
v 1.9 0.7 -0.6
v 1.9 0.7 -0.7
v 1.9 0.7 -0.9
v 1.9 0.8 0.7
v 1.9 0.8 0.5
v 1.9 0.8 0.4
v 1.9 0.8 0.2
v 1.9 0.8 -0.2
v 1.9 0.8 -0.4
v 1.9 0.8 -0.5
v 1.9 0.8 -0.7
v 1.9 0.9 0.5
v 1.9 0.9 0.3
v 1.9 0.9 0.2
v 1.9 0.9 -0.2
v 1.9 0.9 -0.3
v 1.9 0.9 -0.5
v 1.9 1 0.3
v 1.9 1 0.1
v 1.9 1 -0.1
v 1.9 1 -0.3
v 1.9 1.1 0.1
v 1.9 1.1 -0.1
v -1.9 0 1.9
v -1.9 0.1 1.9
v -1.9 0.2 1.9
v 1.9 0 1.9
v 1.9 0.1 1.9
v 1.9 0.2 1.9
v -1.9 0.2 1.7
v -1.9 0.3 1.7
v 1.9 0.2 1.7
v 1.9 0.3 1.7
v -1.9 0.3 1.5
v -1.9 0.4 1.5
v 1.9 0.3 1.5
v 1.9 0.4 1.5
v -1.9 0.4 1.3
v -1.9 0.5 1.3
v 1.9 0.4 1.3
v 1.9 0.5 1.3
v -1.9 0.5 1.1
v -1.9 0.6 1.1
v 1.9 0.5 1.1
v 1.9 0.6 1.1
v -1.9 0.6 0.9
v -1.9 0.7 0.9
v 1.9 0.6 0.9
v 1.9 0.7 0.9
v -1.9 0.7 0.7
v -1.9 0.8 0.7
v 1.9 0.7 0.7
v 1.9 0.8 0.7
v -1.9 0.8 0.5
v -1.9 0.9 0.5
v 1.9 0.8 0.5
v 1.9 0.9 0.5
v -1.9 0.9 0.3
v -1.9 1 0.3
v 1.9 0.9 0.3
v 1.9 1 0.3
v -1.9 1 0.1
v -1.9 1.1 0.1
v 1.9 1 0.1
v 1.9 1.1 0.1
v -1.9 1 -0.1
v -1.9 1.1 -0.1
v 1.9 1 -0.1
v 1.9 1.1 -0.1
v -1.9 0.9 -0.3
v -1.9 1 -0.3
v 1.9 0.9 -0.3
v 1.9 1 -0.3
v -1.9 0.8 -0.5
v -1.9 0.9 -0.5
v 1.9 0.8 -0.5
v 1.9 0.9 -0.5
v -1.9 0.7 -0.7
v -1.9 0.8 -0.7
v 1.9 0.7 -0.7
v 1.9 0.8 -0.7
v -1.9 0.6 -0.9
v -1.9 0.7 -0.9
v 1.9 0.6 -0.9
v 1.9 0.7 -0.9
v -1.9 0.5 -1.1
v -1.9 0.6 -1.1
v 1.9 0.5 -1.1
v 1.9 0.6 -1.1
v -1.9 0.4 -1.3
v -1.9 0.5 -1.3
v 1.9 0.4 -1.3
v 1.9 0.5 -1.3
v -1.9 0.3 -1.5
v -1.9 0.4 -1.5
v 1.9 0.3 -1.5
v 1.9 0.4 -1.5
v -1.9 0.2 -1.7
v -1.9 0.3 -1.7
v 1.9 0.2 -1.7
v 1.9 0.3 -1.7
v -1.9 0 -1.9
v -1.9 0.1 -1.9
v -1.9 0.2 -1.9
v 1.9 0 -1.9
v 1.9 0.1 -1.9
v 1.9 0.2 -1.9
v -1.9 0 1.9
v 1.9 0 1.9
v -1.9 0 -1.9
v 1.9 0 -1.9
v -1.9 0.2 1.9
v 1.9 0.2 1.9
v -1.9 0.2 1.7
v 1.9 0.2 1.7
v -1.9 0.2 -1.7
v 1.9 0.2 -1.7
v -1.9 0.2 -1.9
v 1.9 0.2 -1.9
v -1.9 0.3 1.7
v 1.9 0.3 1.7
v -1.9 0.3 1.5
v 1.9 0.3 1.5
v -1.9 0.3 -1.5
v 1.9 0.3 -1.5
v -1.9 0.3 -1.7
v 1.9 0.3 -1.7
v -1.9 0.4 1.5
v 1.9 0.4 1.5
v -1.9 0.4 1.3
v 1.9 0.4 1.3
v -1.9 0.4 -1.3
v 1.9 0.4 -1.3
v -1.9 0.4 -1.5
v 1.9 0.4 -1.5
v -1.9 0.5 1.3
v 1.9 0.5 1.3
v -1.9 0.5 1.1
v 1.9 0.5 1.1
v -1.9 0.5 -1.1
v 1.9 0.5 -1.1
v -1.9 0.5 -1.3
v 1.9 0.5 -1.3
v -1.9 0.6 1.1
v 1.9 0.6 1.1
v -1.9 0.6 0.9
v 1.9 0.6 0.9
v -1.9 0.6 -0.9
v 1.9 0.6 -0.9
v -1.9 0.6 -1.1
v 1.9 0.6 -1.1
v -1.9 0.7 0.9
v 1.9 0.7 0.9
v -1.9 0.7 0.7
v 1.9 0.7 0.7
v -1.9 0.7 -0.7
v 1.9 0.7 -0.7
v -1.9 0.7 -0.9
v 1.9 0.7 -0.9
v -1.9 0.8 0.7
v 1.9 0.8 0.7
v -1.9 0.8 0.5
v 1.9 0.8 0.5
v -1.9 0.8 -0.5
v 1.9 0.8 -0.5
v -1.9 0.8 -0.7
v 1.9 0.8 -0.7
v -1.9 0.9 0.5
v 1.9 0.9 0.5
v -1.9 0.9 0.3
v 1.9 0.9 0.3
v -1.9 0.9 -0.3
v 1.9 0.9 -0.3
v -1.9 0.9 -0.5
v 1.9 0.9 -0.5
v -1.9 1 0.3
v 1.9 1 0.3
v -1.9 1 0.1
v 1.9 1 0.1
v -1.9 1 -0.1
v 1.9 1 -0.1
v -1.9 1 -0.3
v 1.9 1 -0.3
v -1.9 1.1 0.1
v 1.9 1.1 0.1
v -1.9 1.1 -0.1
v 1.9 1.1 -0.1

# faces
f 3/1/1 2/1/1 1/1/1
f 4/1/1 2/1/1 3/1/1
f 5/1/1 2/1/1 4/1/1
f 6/1/1 2/1/1 5/1/1
f 7/2/1 4/2/1 3/2/1
f 8/2/1 4/2/1 7/2/1
f 9/1/1 5/1/1 4/1/1
f 9/2/1 4/2/1 8/2/1
f 10/1/1 5/1/1 9/1/1
f 11/1/1 5/1/1 10/1/1
f 12/2/1 6/2/1 5/2/1
f 12/1/1 5/1/1 11/1/1
f 13/2/1 6/2/1 12/2/1
f 14/2/1 6/2/1 13/2/1
f 15/2/1 9/2/1 8/2/1
f 15/2/1 10/2/1 9/2/1
f 16/2/1 10/2/1 15/2/1
f 17/1/1 11/1/1 10/1/1
f 17/2/1 10/2/1 16/2/1
f 18/1/1 11/1/1 17/1/1
f 19/1/1 11/1/1 18/1/1
f 20/2/1 13/2/1 12/2/1
f 20/1/1 11/1/1 19/1/1
f 20/2/1 12/2/1 11/2/1
f 21/2/1 13/2/1 20/2/1
f 22/2/1 13/2/1 21/2/1
f 23/2/1 18/2/1 17/2/1
f 23/2/1 17/2/1 16/2/1
f 24/2/1 18/2/1 23/2/1
f 25/1/1 19/1/1 18/1/1
f 25/2/1 18/2/1 24/2/1
f 26/1/1 19/1/1 25/1/1
f 27/1/1 19/1/1 26/1/1
f 28/2/1 21/2/1 20/2/1
f 28/1/1 19/1/1 27/1/1
f 28/2/1 20/2/1 19/2/1
f 29/2/1 21/2/1 28/2/1
f 30/2/1 21/2/1 29/2/1
f 31/2/1 26/2/1 25/2/1
f 31/2/1 25/2/1 24/2/1
f 32/2/1 26/2/1 31/2/1
f 33/1/1 27/1/1 26/1/1
f 33/2/1 26/2/1 32/2/1
f 34/1/1 27/1/1 33/1/1
f 35/1/1 27/1/1 34/1/1
f 36/2/1 29/2/1 28/2/1
f 36/1/1 27/1/1 35/1/1
f 36/2/1 28/2/1 27/2/1
f 37/2/1 29/2/1 36/2/1
f 38/2/1 29/2/1 37/2/1
f 39/2/1 34/2/1 33/2/1
f 39/2/1 33/2/1 32/2/1
f 40/2/1 34/2/1 39/2/1
f 41/1/1 35/1/1 34/1/1
f 41/2/1 34/2/1 40/2/1
f 42/1/1 35/1/1 41/1/1
f 43/1/1 35/1/1 42/1/1
f 44/2/1 37/2/1 36/2/1
f 44/1/1 35/1/1 43/1/1
f 44/2/1 36/2/1 35/2/1
f 45/2/1 37/2/1 44/2/1
f 46/2/1 37/2/1 45/2/1
f 47/2/1 42/2/1 41/2/1
f 47/2/1 41/2/1 40/2/1
f 48/2/1 42/2/1 47/2/1
f 49/1/1 43/1/1 42/1/1
f 49/2/1 42/2/1 48/2/1
f 50/1/1 43/1/1 49/1/1
f 51/1/1 43/1/1 50/1/1
f 52/2/1 45/2/1 44/2/1
f 52/1/1 43/1/1 51/1/1
f 52/2/1 44/2/1 43/2/1
f 53/2/1 45/2/1 52/2/1
f 54/2/1 45/2/1 53/2/1
f 55/2/1 50/2/1 49/2/1
f 55/2/1 49/2/1 48/2/1
f 56/2/1 50/2/1 55/2/1
f 57/1/1 51/1/1 50/1/1
f 57/2/1 50/2/1 56/2/1
f 58/1/1 51/1/1 57/1/1
f 59/1/1 51/1/1 58/1/1
f 60/2/1 53/2/1 52/2/1
f 60/1/1 51/1/1 59/1/1
f 60/2/1 52/2/1 51/2/1
f 61/2/1 53/2/1 60/2/1
f 62/2/1 53/2/1 61/2/1
f 63/2/1 58/2/1 57/2/1
f 63/2/1 57/2/1 56/2/1
f 64/2/1 58/2/1 63/2/1
f 65/1/1 59/1/1 58/1/1
f 65/2/1 58/2/1 64/2/1
f 66/2/1 61/2/1 60/2/1
f 66/1/1 59/1/1 65/1/1
f 66/2/1 60/2/1 59/2/1
f 67/2/1 61/2/1 66/2/1
f 68/2/1 61/2/1 67/2/1
f 69/2/1 65/2/1 64/2/1
f 69/2/1 67/2/1 66/2/1
f 69/2/1 66/2/1 65/2/1
f 70/2/1 67/2/1 69/2/1
f 71/2/1 67/2/1 70/2/1
f 72/2/1 67/2/1 71/2/1
f 73/2/1 71/2/1 70/2/1
f 74/2/1 71/2/1 73/2/1
f 75/1/2 76/1/2 77/1/2
f 77/1/2 76/1/2 78/1/2
f 78/1/2 76/1/2 79/1/2
f 79/1/2 76/1/2 80/1/2
f 77/2/2 78/2/2 81/2/2
f 81/2/2 78/2/2 82/2/2
f 78/1/2 79/1/2 83/1/2
f 82/2/2 78/2/2 83/2/2
f 83/1/2 79/1/2 84/1/2
f 84/1/2 79/1/2 85/1/2
f 79/2/2 80/2/2 86/2/2
f 85/1/2 79/1/2 86/1/2
f 86/2/2 80/2/2 87/2/2
f 87/2/2 80/2/2 88/2/2
f 82/2/2 83/2/2 89/2/2
f 83/2/2 84/2/2 89/2/2
f 89/2/2 84/2/2 90/2/2
f 84/1/2 85/1/2 91/1/2
f 90/2/2 84/2/2 91/2/2
f 91/1/2 85/1/2 92/1/2
f 92/1/2 85/1/2 93/1/2
f 86/2/2 87/2/2 94/2/2
f 93/1/2 85/1/2 94/1/2
f 85/2/2 86/2/2 94/2/2
f 94/2/2 87/2/2 95/2/2
f 95/2/2 87/2/2 96/2/2
f 91/2/2 92/2/2 97/2/2
f 90/2/2 91/2/2 97/2/2
f 97/2/2 92/2/2 98/2/2
f 92/1/2 93/1/2 99/1/2
f 98/2/2 92/2/2 99/2/2
f 99/1/2 93/1/2 100/1/2
f 100/1/2 93/1/2 101/1/2
f 94/2/2 95/2/2 102/2/2
f 101/1/2 93/1/2 102/1/2
f 93/2/2 94/2/2 102/2/2
f 102/2/2 95/2/2 103/2/2
f 103/2/2 95/2/2 104/2/2
f 99/2/2 100/2/2 105/2/2
f 98/2/2 99/2/2 105/2/2
f 105/2/2 100/2/2 106/2/2
f 100/1/2 101/1/2 107/1/2
f 106/2/2 100/2/2 107/2/2
f 107/1/2 101/1/2 108/1/2
f 108/1/2 101/1/2 109/1/2
f 102/2/2 103/2/2 110/2/2
f 109/1/2 101/1/2 110/1/2
f 101/2/2 102/2/2 110/2/2
f 110/2/2 103/2/2 111/2/2
f 111/2/2 103/2/2 112/2/2
f 107/2/2 108/2/2 113/2/2
f 106/2/2 107/2/2 113/2/2
f 113/2/2 108/2/2 114/2/2
f 108/1/2 109/1/2 115/1/2
f 114/2/2 108/2/2 115/2/2
f 115/1/2 109/1/2 116/1/2
f 116/1/2 109/1/2 117/1/2
f 110/2/2 111/2/2 118/2/2
f 117/1/2 109/1/2 118/1/2
f 109/2/2 110/2/2 118/2/2
f 118/2/2 111/2/2 119/2/2
f 119/2/2 111/2/2 120/2/2
f 115/2/2 116/2/2 121/2/2
f 114/2/2 115/2/2 121/2/2
f 121/2/2 116/2/2 122/2/2
f 116/1/2 117/1/2 123/1/2
f 122/2/2 116/2/2 123/2/2
f 123/1/2 117/1/2 124/1/2
f 124/1/2 117/1/2 125/1/2
f 118/2/2 119/2/2 126/2/2
f 125/1/2 117/1/2 126/1/2
f 117/2/2 118/2/2 126/2/2
f 126/2/2 119/2/2 127/2/2
f 127/2/2 119/2/2 128/2/2
f 123/2/2 124/2/2 129/2/2
f 122/2/2 123/2/2 129/2/2
f 129/2/2 124/2/2 130/2/2
f 124/1/2 125/1/2 131/1/2
f 130/2/2 124/2/2 131/2/2
f 131/1/2 125/1/2 132/1/2
f 132/1/2 125/1/2 133/1/2
f 126/2/2 127/2/2 134/2/2
f 133/1/2 125/1/2 134/1/2
f 125/2/2 126/2/2 134/2/2
f 134/2/2 127/2/2 135/2/2
f 135/2/2 127/2/2 136/2/2
f 131/2/2 132/2/2 137/2/2
f 130/2/2 131/2/2 137/2/2
f 137/2/2 132/2/2 138/2/2
f 132/1/2 133/1/2 139/1/2
f 138/2/2 132/2/2 139/2/2
f 134/2/2 135/2/2 140/2/2
f 139/1/2 133/1/2 140/1/2
f 133/2/2 134/2/2 140/2/2
f 140/2/2 135/2/2 141/2/2
f 141/2/2 135/2/2 142/2/2
f 138/2/2 139/2/2 143/2/2
f 140/2/2 141/2/2 143/2/2
f 139/2/2 140/2/2 143/2/2
f 143/2/2 141/2/2 144/2/2
f 144/2/2 141/2/2 145/2/2
f 145/2/2 141/2/2 146/2/2
f 144/2/2 145/2/2 147/2/2
f 147/2/2 145/2/2 148/2/2
f 152/1/3 150/1/3 149/1/3
f 153/2/3 151/2/3 150/2/3
f 153/1/3 150/1/3 152/1/3
f 154/2/3 151/2/3 153/2/3
f 157/2/3 156/2/3 155/2/3
f 158/2/3 156/2/3 157/2/3
f 161/2/3 160/2/3 159/2/3
f 162/2/3 160/2/3 161/2/3
f 165/2/3 164/2/3 163/2/3
f 166/2/3 164/2/3 165/2/3
f 169/2/3 168/2/3 167/2/3
f 170/2/3 168/2/3 169/2/3
f 173/2/3 172/2/3 171/2/3
f 174/2/3 172/2/3 173/2/3
f 177/2/3 176/2/3 175/2/3
f 178/2/3 176/2/3 177/2/3
f 181/2/3 180/2/3 179/2/3
f 182/2/3 180/2/3 181/2/3
f 185/2/3 184/2/3 183/2/3
f 186/2/3 184/2/3 185/2/3
f 189/2/3 188/2/3 187/2/3
f 190/2/3 188/2/3 189/2/3
f 191/2/4 192/2/4 193/2/4
f 193/2/4 192/2/4 194/2/4
f 195/2/4 196/2/4 197/2/4
f 197/2/4 196/2/4 198/2/4
f 199/2/4 200/2/4 201/2/4
f 201/2/4 200/2/4 202/2/4
f 203/2/4 204/2/4 205/2/4
f 205/2/4 204/2/4 206/2/4
f 207/2/4 208/2/4 209/2/4
f 209/2/4 208/2/4 210/2/4
f 211/2/4 212/2/4 213/2/4
f 213/2/4 212/2/4 214/2/4
f 215/2/4 216/2/4 217/2/4
f 217/2/4 216/2/4 218/2/4
f 219/2/4 220/2/4 221/2/4
f 221/2/4 220/2/4 222/2/4
f 223/2/4 224/2/4 225/2/4
f 225/2/4 224/2/4 226/2/4
f 227/1/4 228/1/4 230/1/4
f 228/2/4 229/2/4 231/2/4
f 230/1/4 228/1/4 231/1/4
f 231/2/4 229/2/4 232/2/4
f 235/1/5 234/1/5 233/1/5
f 236/1/5 234/1/5 235/1/5
f 237/2/6 238/2/6 239/2/6
f 239/2/6 238/2/6 240/2/6
f 241/2/6 242/2/6 243/2/6
f 243/2/6 242/2/6 244/2/6
f 245/2/6 246/2/6 247/2/6
f 247/2/6 246/2/6 248/2/6
f 249/2/6 250/2/6 251/2/6
f 251/2/6 250/2/6 252/2/6
f 253/2/6 254/2/6 255/2/6
f 255/2/6 254/2/6 256/2/6
f 257/2/6 258/2/6 259/2/6
f 259/2/6 258/2/6 260/2/6
f 261/2/6 262/2/6 263/2/6
f 263/2/6 262/2/6 264/2/6
f 265/2/6 266/2/6 267/2/6
f 267/2/6 266/2/6 268/2/6
f 269/2/6 270/2/6 271/2/6
f 271/2/6 270/2/6 272/2/6
f 273/2/6 274/2/6 275/2/6
f 275/2/6 274/2/6 276/2/6
f 277/2/6 278/2/6 279/2/6
f 279/2/6 278/2/6 280/2/6
f 281/2/6 282/2/6 283/2/6
f 283/2/6 282/2/6 284/2/6
f 285/2/6 286/2/6 287/2/6
f 287/2/6 286/2/6 288/2/6
f 289/2/6 290/2/6 291/2/6
f 291/2/6 290/2/6 292/2/6
f 293/2/6 294/2/6 295/2/6
f 295/2/6 294/2/6 296/2/6
f 297/2/6 298/2/6 299/2/6
f 299/2/6 298/2/6 300/2/6
f 301/2/6 302/2/6 303/2/6
f 303/2/6 302/2/6 304/2/6
f 305/2/6 306/2/6 307/2/6
f 307/2/6 306/2/6 308/2/6
f 309/2/6 310/2/6 311/2/6
f 311/2/6 310/2/6 312/2/6
