# MagicaVoxel @ Ephtracy

# group
o 

# material
mtllib Tank_bot.mtl
usemtl palette

# normals
vn -1 0 0
vn 1 0 0
vn 0 0 1
vn 0 0 -1
vn 0 -1 0
vn 0 1 0

# texcoords
vt 0.341797 0.5
vt 0.994141 0.5

# verts
v -1.4 0.2 1.7
v -1.4 0.2 -1.7
v -1.4 0.3 1.8
v -1.4 0.3 1.7
v -1.4 0.3 -1.7
v -1.4 0.3 -1.8
v -1.4 0.4 1.9
v -1.4 0.4 1.8
v -1.4 0.4 -1.8
v -1.4 0.4 -1.9
v -1.4 0.6 1.9
v -1.4 0.6 1.7
v -1.4 0.6 -1.7
v -1.4 0.6 -1.9
v -1.4 0.7 1.7
v -1.4 0.7 -1.7
v -1.3 0 1.4
v -1.3 0 -1.4
v -1.3 0.1 1.6
v -1.3 0.1 1.4
v -1.3 0.1 -1.4
v -1.3 0.1 -1.6
v -1.3 0.2 1.6
v -1.3 0.2 -1.6
v 0.6 0 1.4
v 0.6 0 -1.4
v 0.6 0.1 1.6
v 0.6 0.1 1.4
v 0.6 0.1 1.1
v 0.6 0.1 -1.1
v 0.6 0.1 -1.4
v 0.6 0.1 -1.6
v 0.6 0.2 1.7
v 0.6 0.2 1.6
v 0.6 0.2 1.4
v 0.6 0.2 1.1
v 0.6 0.2 -1.1
v 0.6 0.2 -1.4
v 0.6 0.2 -1.6
v 0.6 0.2 -1.7
v 0.6 0.3 1.8
v 0.6 0.3 1.7
v 0.6 0.3 1.6
v 0.6 0.3 1.4
v 0.6 0.3 -1.4
v 0.6 0.3 -1.6
v 0.6 0.3 -1.7
v 0.6 0.3 -1.8
v 0.6 0.4 1.9
v 0.6 0.4 1.8
v 0.6 0.4 1.7
v 0.6 0.4 1.6
v 0.6 0.4 -1.6
v 0.6 0.4 -1.7
v 0.6 0.4 -1.8
v 0.6 0.4 -1.9
v 0.6 0.5 1.8
v 0.6 0.5 1.7
v 0.6 0.5 1.6
v 0.6 0.5 -1.6
v 0.6 0.5 -1.7
v 0.6 0.5 -1.8
v 0.6 0.6 1.9
v 0.6 0.6 1.7
v 0.6 0.6 1.6
v 0.6 0.6 1.3
v 0.6 0.6 -1.3
v 0.6 0.6 -1.6
v 0.6 0.6 -1.7
v 0.6 0.6 -1.9
v 0.6 0.7 1.7
v 0.6 0.7 1.3
v 0.6 0.7 -1.3
v 0.6 0.7 -1.7
v -0.7 0 1.4
v -0.7 0 -1.4
v -0.7 0.1 1.6
v -0.7 0.1 1.4
v -0.7 0.1 1.1
v -0.7 0.1 -1.1
v -0.7 0.1 -1.4
v -0.7 0.1 -1.6
v -0.7 0.2 1.7
v -0.7 0.2 1.6
v -0.7 0.2 1.4
v -0.7 0.2 1.1
v -0.7 0.2 -1.1
v -0.7 0.2 -1.4
v -0.7 0.2 -1.6
v -0.7 0.2 -1.7
v -0.7 0.3 1.8
v -0.7 0.3 1.7
v -0.7 0.3 1.6
v -0.7 0.3 1.4
v -0.7 0.3 -1.4
v -0.7 0.3 -1.6
v -0.7 0.3 -1.7
v -0.7 0.3 -1.8
v -0.7 0.4 1.9
v -0.7 0.4 1.8
v -0.7 0.4 1.7
v -0.7 0.4 1.6
v -0.7 0.4 -1.6
v -0.7 0.4 -1.7
v -0.7 0.4 -1.8
v -0.7 0.4 -1.9
v -0.7 0.5 1.8
v -0.7 0.5 1.7
v -0.7 0.5 1.6
v -0.7 0.5 -1.6
v -0.7 0.5 -1.7
v -0.7 0.5 -1.8
v -0.7 0.6 1.9
v -0.7 0.6 1.7
v -0.7 0.6 1.6
v -0.7 0.6 1.3
v -0.7 0.6 -1.3
v -0.7 0.6 -1.6
v -0.7 0.6 -1.7
v -0.7 0.6 -1.9
v -0.7 0.7 1.7
v -0.7 0.7 1.3
v -0.7 0.7 -1.3
v -0.7 0.7 -1.7
v 1.2 0 1.4
v 1.2 0 -1.4
v 1.2 0.1 1.6
v 1.2 0.1 1.4
v 1.2 0.1 -1.4
v 1.2 0.1 -1.6
v 1.2 0.2 1.6
v 1.2 0.2 -1.6
v 1.3 0.2 1.7
v 1.3 0.2 -1.7
v 1.3 0.3 1.8
v 1.3 0.3 1.7
v 1.3 0.3 -1.7
v 1.3 0.3 -1.8
v 1.3 0.4 1.9
v 1.3 0.4 1.8
v 1.3 0.4 -1.8
v 1.3 0.4 -1.9
v 1.3 0.6 1.9
v 1.3 0.6 1.7
v 1.3 0.6 -1.7
v 1.3 0.6 -1.9
v 1.3 0.7 1.7
v 1.3 0.7 -1.7
v -1.4 0.4 1.9
v -1.4 0.6 1.9
v -0.7 0.4 1.9
v -0.7 0.6 1.9
v 0.6 0.4 1.9
v 0.6 0.6 1.9
v 1.3 0.4 1.9
v 1.3 0.6 1.9
v -1.4 0.3 1.8
v -1.4 0.4 1.8
v -1.3 0.3 1.8
v -1.3 0.4 1.8
v -0.7 0.3 1.8
v -0.7 0.4 1.8
v 0.6 0.3 1.8
v 0.6 0.4 1.8
v 1.2 0.3 1.8
v 1.2 0.4 1.8
v 1.3 0.3 1.8
v 1.3 0.4 1.8
v -1.4 0.2 1.7
v -1.4 0.3 1.7
v -1.4 0.6 1.7
v -1.4 0.7 1.7
v -1.3 0.2 1.7
v -1.3 0.3 1.7
v -0.7 0.2 1.7
v -0.7 0.3 1.7
v -0.7 0.4 1.7
v -0.7 0.5 1.7
v -0.7 0.6 1.7
v -0.7 0.7 1.7
v 0.6 0.2 1.7
v 0.6 0.3 1.7
v 0.6 0.4 1.7
v 0.6 0.5 1.7
v 0.6 0.6 1.7
v 0.6 0.7 1.7
v 1.2 0.2 1.7
v 1.2 0.3 1.7
v 1.3 0.2 1.7
v 1.3 0.3 1.7
v 1.3 0.6 1.7
v 1.3 0.7 1.7
v -1.3 0.1 1.6
v -1.3 0.2 1.6
v -0.7 0.1 1.6
v -0.7 0.2 1.6
v -0.7 0.3 1.6
v -0.7 0.4 1.6
v -0.7 0.5 1.6
v -0.7 0.6 1.6
v 0.6 0.1 1.6
v 0.6 0.2 1.6
v 0.6 0.3 1.6
v 0.6 0.4 1.6
v 0.6 0.5 1.6
v 0.6 0.6 1.6
v 1.2 0.1 1.6
v 1.2 0.2 1.6
v -1.3 0 1.4
v -1.3 0.1 1.4
v -0.7 0 1.4
v -0.7 0.1 1.4
v -0.7 0.2 1.4
v -0.7 0.3 1.4
v 0.6 0 1.4
v 0.6 0.1 1.4
v 0.6 0.2 1.4
v 0.6 0.3 1.4
v 1.2 0 1.4
v 1.2 0.1 1.4
v -0.7 0.6 1.3
v -0.7 0.7 1.3
v 0.6 0.6 1.3
v 0.6 0.7 1.3
v -0.7 0.1 1.1
v -0.7 0.2 1.1
v 0.6 0.1 1.1
v 0.6 0.2 1.1
v -0.7 0.1 -1.1
v -0.7 0.2 -1.1
v 0.6 0.1 -1.1
v 0.6 0.2 -1.1
v -0.7 0.6 -1.3
v -0.7 0.7 -1.3
v 0.6 0.6 -1.3
v 0.6 0.7 -1.3
v -1.3 0 -1.4
v -1.3 0.1 -1.4
v -0.7 0 -1.4
v -0.7 0.1 -1.4
v -0.7 0.2 -1.4
v -0.7 0.3 -1.4
v 0.6 0 -1.4
v 0.6 0.1 -1.4
v 0.6 0.2 -1.4
v 0.6 0.3 -1.4
v 1.2 0 -1.4
v 1.2 0.1 -1.4
v -1.3 0.1 -1.6
v -1.3 0.2 -1.6
v -0.7 0.1 -1.6
v -0.7 0.2 -1.6
v -0.7 0.3 -1.6
v -0.7 0.4 -1.6
v -0.7 0.5 -1.6
v -0.7 0.6 -1.6
v 0.6 0.1 -1.6
v 0.6 0.2 -1.6
v 0.6 0.3 -1.6
v 0.6 0.4 -1.6
v 0.6 0.5 -1.6
v 0.6 0.6 -1.6
v 1.2 0.1 -1.6
v 1.2 0.2 -1.6
v -1.4 0.2 -1.7
v -1.4 0.3 -1.7
v -1.4 0.6 -1.7
v -1.4 0.7 -1.7
v -1.3 0.2 -1.7
v -1.3 0.3 -1.7
v -0.7 0.2 -1.7
v -0.7 0.3 -1.7
v -0.7 0.4 -1.7
v -0.7 0.5 -1.7
v -0.7 0.6 -1.7
v -0.7 0.7 -1.7
v 0.6 0.2 -1.7
v 0.6 0.3 -1.7
v 0.6 0.4 -1.7
v 0.6 0.5 -1.7
v 0.6 0.6 -1.7
v 0.6 0.7 -1.7
v 1.2 0.2 -1.7
v 1.2 0.3 -1.7
v 1.3 0.2 -1.7
v 1.3 0.3 -1.7
v 1.3 0.6 -1.7
v 1.3 0.7 -1.7
v -1.4 0.3 -1.8
v -1.4 0.4 -1.8
v -1.3 0.3 -1.8
v -1.3 0.4 -1.8
v -0.7 0.3 -1.8
v -0.7 0.4 -1.8
v 0.6 0.3 -1.8
v 0.6 0.4 -1.8
v 1.2 0.3 -1.8
v 1.2 0.4 -1.8
v 1.3 0.3 -1.8
v 1.3 0.4 -1.8
v -1.4 0.4 -1.9
v -1.4 0.6 -1.9
v -0.7 0.4 -1.9
v -0.7 0.6 -1.9
v 0.6 0.4 -1.9
v 0.6 0.6 -1.9
v 1.3 0.4 -1.9
v 1.3 0.6 -1.9
v -1.3 0 1.4
v -0.7 0 1.4
v 0.6 0 1.4
v 1.2 0 1.4
v -1.3 0 -1.4
v -0.7 0 -1.4
v 0.6 0 -1.4
v 1.2 0 -1.4
v -1.3 0.1 1.6
v -0.7 0.1 1.6
v 0.6 0.1 1.6
v 1.2 0.1 1.6
v -1.3 0.1 1.4
v -0.7 0.1 1.4
v 0.6 0.1 1.4
v 1.2 0.1 1.4
v -0.7 0.1 1.1
v 0.6 0.1 1.1
v -0.7 0.1 -1.1
v 0.6 0.1 -1.1
v -1.3 0.1 -1.4
v -0.7 0.1 -1.4
v 0.6 0.1 -1.4
v 1.2 0.1 -1.4
v -1.3 0.1 -1.6
v -0.7 0.1 -1.6
v 0.6 0.1 -1.6
v 1.2 0.1 -1.6
v -1.4 0.2 1.7
v -1.3 0.2 1.7
v -0.7 0.2 1.7
v 0.6 0.2 1.7
v 1.2 0.2 1.7
v 1.3 0.2 1.7
v -1.3 0.2 1.6
v -0.7 0.2 1.6
v 0.6 0.2 1.6
v 1.2 0.2 1.6
v -0.7 0.2 1.4
v 0.6 0.2 1.4
v -0.7 0.2 1.1
v 0.6 0.2 1.1
v -0.7 0.2 -1.1
v 0.6 0.2 -1.1
v -0.7 0.2 -1.4
v 0.6 0.2 -1.4
v -1.3 0.2 -1.6
v -0.7 0.2 -1.6
v 0.6 0.2 -1.6
v 1.2 0.2 -1.6
v -1.4 0.2 -1.7
v -1.3 0.2 -1.7
v -0.7 0.2 -1.7
v 0.6 0.2 -1.7
v 1.2 0.2 -1.7
v 1.3 0.2 -1.7
v -1.4 0.3 1.8
v -1.3 0.3 1.8
v -0.7 0.3 1.8
v 0.6 0.3 1.8
v 1.2 0.3 1.8
v 1.3 0.3 1.8
v -1.4 0.3 1.7
v -1.3 0.3 1.7
v -0.7 0.3 1.7
v 0.6 0.3 1.7
v 1.2 0.3 1.7
v 1.3 0.3 1.7
v -0.7 0.3 1.6
v 0.6 0.3 1.6
v -0.7 0.3 1.4
v 0.6 0.3 1.4
v -0.7 0.3 -1.4
v 0.6 0.3 -1.4
v -0.7 0.3 -1.6
v 0.6 0.3 -1.6
v -1.4 0.3 -1.7
v -1.3 0.3 -1.7
v -0.7 0.3 -1.7
v 0.6 0.3 -1.7
v 1.2 0.3 -1.7
v 1.3 0.3 -1.7
v -1.4 0.3 -1.8
v -1.3 0.3 -1.8
v -0.7 0.3 -1.8
v 0.6 0.3 -1.8
v 1.2 0.3 -1.8
v 1.3 0.3 -1.8
v -1.4 0.4 1.9
v -0.7 0.4 1.9
v 0.6 0.4 1.9
v 1.3 0.4 1.9
v -1.4 0.4 1.8
v -1.3 0.4 1.8
v -0.7 0.4 1.8
v 0.6 0.4 1.8
v 1.2 0.4 1.8
v 1.3 0.4 1.8
v -0.7 0.4 1.7
v 0.6 0.4 1.7
v -0.7 0.4 1.6
v 0.6 0.4 1.6
v -0.7 0.4 -1.6
v 0.6 0.4 -1.6
v -0.7 0.4 -1.7
v 0.6 0.4 -1.7
v -1.4 0.4 -1.8
v -1.3 0.4 -1.8
v -0.7 0.4 -1.8
v 0.6 0.4 -1.8
v 1.2 0.4 -1.8
v 1.3 0.4 -1.8
v -1.4 0.4 -1.9
v -0.7 0.4 -1.9
v 0.6 0.4 -1.9
v 1.3 0.4 -1.9
v -0.7 0.5 1.7
v 0.6 0.5 1.7
v -0.7 0.5 1.6
v 0.6 0.5 1.6
v -0.7 0.5 -1.6
v 0.6 0.5 -1.6
v -0.7 0.5 -1.7
v 0.6 0.5 -1.7
v -1.4 0.6 1.9
v -0.7 0.6 1.9
v 0.6 0.6 1.9
v 1.3 0.6 1.9
v -1.4 0.6 1.7
v -0.7 0.6 1.7
v 0.6 0.6 1.7
v 1.3 0.6 1.7
v -0.7 0.6 1.6
v 0.6 0.6 1.6
v -0.7 0.6 1.3
v 0.6 0.6 1.3
v -0.7 0.6 -1.3
v 0.6 0.6 -1.3
v -0.7 0.6 -1.6
v 0.6 0.6 -1.6
v -1.4 0.6 -1.7
v -0.7 0.6 -1.7
v 0.6 0.6 -1.7
v 1.3 0.6 -1.7
v -1.4 0.6 -1.9
v -0.7 0.6 -1.9
v 0.6 0.6 -1.9
v 1.3 0.6 -1.9
v -1.4 0.7 1.7
v -0.7 0.7 1.7
v 0.6 0.7 1.7
v 1.3 0.7 1.7
v -0.7 0.7 1.3
v 0.6 0.7 1.3
v -0.7 0.7 -1.3
v 0.6 0.7 -1.3
v -1.4 0.7 -1.7
v -0.7 0.7 -1.7
v 0.6 0.7 -1.7
v 1.3 0.7 -1.7

# faces
f 4/1/1 2/1/1 1/1/1
f 5/1/1 2/1/1 4/1/1
f 8/1/1 4/1/1 3/1/1
f 8/1/1 6/1/1 5/1/1
f 8/1/1 5/1/1 4/1/1
f 9/1/1 6/1/1 8/1/1
f 11/1/1 8/1/1 7/1/1
f 11/1/1 10/1/1 9/1/1
f 11/1/1 9/1/1 8/1/1
f 12/1/1 10/1/1 11/1/1
f 13/1/1 10/1/1 12/1/1
f 14/1/1 10/1/1 13/1/1
f 15/1/1 13/1/1 12/1/1
f 16/1/1 13/1/1 15/1/1
f 20/2/1 18/2/1 17/2/1
f 21/2/1 18/2/1 20/2/1
f 23/2/1 20/2/1 19/2/1
f 23/2/1 22/2/1 21/2/1
f 23/2/1 21/2/1 20/2/1
f 24/2/1 22/2/1 23/2/1
f 28/2/1 26/2/1 25/2/1
f 29/2/1 26/2/1 28/2/1
f 30/2/1 26/2/1 29/2/1
f 31/2/1 26/2/1 30/2/1
f 34/2/1 28/2/1 27/2/1
f 35/1/1 29/1/1 28/1/1
f 35/2/1 28/2/1 34/2/1
f 36/1/1 29/1/1 35/1/1
f 37/1/1 31/1/1 30/1/1
f 38/2/1 32/2/1 31/2/1
f 38/1/1 31/1/1 37/1/1
f 39/2/1 32/2/1 38/2/1
f 42/2/1 34/2/1 33/2/1
f 43/1/1 35/1/1 34/1/1
f 43/2/1 34/2/1 42/2/1
f 44/1/1 35/1/1 43/1/1
f 45/1/1 39/1/1 38/1/1
f 46/2/1 40/2/1 39/2/1
f 46/1/1 39/1/1 45/1/1
f 47/2/1 40/2/1 46/2/1
f 50/2/1 42/2/1 41/2/1
f 51/1/1 43/1/1 42/1/1
f 51/2/1 42/2/1 50/2/1
f 52/1/1 43/1/1 51/1/1
f 53/1/1 47/1/1 46/1/1
f 54/2/1 48/2/1 47/2/1
f 54/1/1 47/1/1 53/1/1
f 55/2/1 48/2/1 54/2/1
f 57/1/1 50/1/1 49/1/1
f 57/2/1 51/2/1 50/2/1
f 58/2/1 51/2/1 57/2/1
f 61/2/1 55/2/1 54/2/1
f 62/1/1 56/1/1 55/1/1
f 62/2/1 55/2/1 61/2/1
f 63/1/1 59/1/1 58/1/1
f 63/1/1 57/1/1 49/1/1
f 63/1/1 58/1/1 57/1/1
f 64/1/1 59/1/1 63/1/1
f 65/1/1 59/1/1 64/1/1
f 68/1/1 61/1/1 60/1/1
f 68/1/1 62/1/1 61/1/1
f 69/1/1 62/1/1 68/1/1
f 70/1/1 56/1/1 62/1/1
f 70/1/1 62/1/1 69/1/1
f 71/1/1 66/1/1 65/1/1
f 71/1/1 65/1/1 64/1/1
f 72/1/1 66/1/1 71/1/1
f 73/1/1 69/1/1 68/1/1
f 73/1/1 68/1/1 67/1/1
f 74/1/1 69/1/1 73/1/1
f 75/2/2 76/2/2 78/2/2
f 78/2/2 76/2/2 79/2/2
f 79/2/2 76/2/2 80/2/2
f 80/2/2 76/2/2 81/2/2
f 77/2/2 78/2/2 84/2/2
f 78/1/2 79/1/2 85/1/2
f 84/2/2 78/2/2 85/2/2
f 85/1/2 79/1/2 86/1/2
f 80/1/2 81/1/2 87/1/2
f 81/2/2 82/2/2 88/2/2
f 87/1/2 81/1/2 88/1/2
f 88/2/2 82/2/2 89/2/2
f 83/2/2 84/2/2 92/2/2
f 84/1/2 85/1/2 93/1/2
f 92/2/2 84/2/2 93/2/2
f 93/1/2 85/1/2 94/1/2
f 88/1/2 89/1/2 95/1/2
f 89/2/2 90/2/2 96/2/2
f 95/1/2 89/1/2 96/1/2
f 96/2/2 90/2/2 97/2/2
f 91/2/2 92/2/2 100/2/2
f 92/1/2 93/1/2 101/1/2
f 100/2/2 92/2/2 101/2/2
f 101/1/2 93/1/2 102/1/2
f 96/1/2 97/1/2 103/1/2
f 97/2/2 98/2/2 104/2/2
f 103/1/2 97/1/2 104/1/2
f 104/2/2 98/2/2 105/2/2
f 99/1/2 100/1/2 107/1/2
f 100/2/2 101/2/2 107/2/2
f 107/2/2 101/2/2 108/2/2
f 104/2/2 105/2/2 111/2/2
f 105/1/2 106/1/2 112/1/2
f 111/2/2 105/2/2 112/2/2
f 108/1/2 109/1/2 113/1/2
f 99/1/2 107/1/2 113/1/2
f 107/1/2 108/1/2 113/1/2
f 113/1/2 109/1/2 114/1/2
f 114/1/2 109/1/2 115/1/2
f 110/1/2 111/1/2 118/1/2
f 111/1/2 112/1/2 118/1/2
f 118/1/2 112/1/2 119/1/2
f 112/1/2 106/1/2 120/1/2
f 119/1/2 112/1/2 120/1/2
f 115/1/2 116/1/2 121/1/2
f 114/1/2 115/1/2 121/1/2
f 121/1/2 116/1/2 122/1/2
f 118/1/2 119/1/2 123/1/2
f 117/1/2 118/1/2 123/1/2
f 123/1/2 119/1/2 124/1/2
f 125/2/2 126/2/2 128/2/2
f 128/2/2 126/2/2 129/2/2
f 127/2/2 128/2/2 131/2/2
f 129/2/2 130/2/2 131/2/2
f 128/2/2 129/2/2 131/2/2
f 131/2/2 130/2/2 132/2/2
f 133/1/2 134/1/2 136/1/2
f 136/1/2 134/1/2 137/1/2
f 135/1/2 136/1/2 140/1/2
f 137/1/2 138/1/2 140/1/2
f 136/1/2 137/1/2 140/1/2
f 140/1/2 138/1/2 141/1/2
f 139/1/2 140/1/2 143/1/2
f 141/1/2 142/1/2 143/1/2
f 140/1/2 141/1/2 143/1/2
f 143/1/2 142/1/2 144/1/2
f 144/1/2 142/1/2 145/1/2
f 145/1/2 142/1/2 146/1/2
f 144/1/2 145/1/2 147/1/2
f 147/1/2 145/1/2 148/1/2
f 151/1/3 150/1/3 149/1/3
f 152/1/3 150/1/3 151/1/3
f 155/1/3 154/1/3 153/1/3
f 156/1/3 154/1/3 155/1/3
f 159/1/3 158/1/3 157/1/3
f 160/1/3 158/1/3 159/1/3
f 161/2/3 160/2/3 159/2/3
f 162/2/3 160/2/3 161/2/3
f 165/2/3 164/2/3 163/2/3
f 166/2/3 164/2/3 165/2/3
f 167/1/3 166/1/3 165/1/3
f 168/1/3 166/1/3 167/1/3
f 173/1/3 170/1/3 169/1/3
f 174/1/3 170/1/3 173/1/3
f 175/2/3 174/2/3 173/2/3
f 176/2/3 174/2/3 175/2/3
f 179/1/3 172/1/3 171/1/3
f 180/1/3 172/1/3 179/1/3
f 183/1/3 178/1/3 177/1/3
f 184/1/3 178/1/3 183/1/3
f 187/2/3 182/2/3 181/2/3
f 188/2/3 182/2/3 187/2/3
f 189/1/3 188/1/3 187/1/3
f 190/1/3 188/1/3 189/1/3
f 191/1/3 186/1/3 185/1/3
f 192/1/3 186/1/3 191/1/3
f 195/2/3 194/2/3 193/2/3
f 196/2/3 194/2/3 195/2/3
f 203/1/3 198/1/3 197/1/3
f 204/1/3 198/1/3 203/1/3
f 205/1/3 200/1/3 199/1/3
f 206/1/3 200/1/3 205/1/3
f 207/2/3 202/2/3 201/2/3
f 208/2/3 202/2/3 207/2/3
f 211/2/3 210/2/3 209/2/3
f 212/2/3 210/2/3 211/2/3
f 217/1/3 214/1/3 213/1/3
f 218/1/3 214/1/3 217/1/3
f 219/2/3 216/2/3 215/2/3
f 220/2/3 216/2/3 219/2/3
f 223/1/3 222/1/3 221/1/3
f 224/1/3 222/1/3 223/1/3
f 227/1/3 226/1/3 225/1/3
f 228/1/3 226/1/3 227/1/3
f 229/1/4 230/1/4 231/1/4
f 231/1/4 230/1/4 232/1/4
f 233/1/4 234/1/4 235/1/4
f 235/1/4 234/1/4 236/1/4
f 237/2/4 238/2/4 239/2/4
f 239/2/4 238/2/4 240/2/4
f 241/1/4 242/1/4 245/1/4
f 245/1/4 242/1/4 246/1/4
f 243/2/4 244/2/4 247/2/4
f 247/2/4 244/2/4 248/2/4
f 249/2/4 250/2/4 251/2/4
f 251/2/4 250/2/4 252/2/4
f 253/1/4 254/1/4 259/1/4
f 259/1/4 254/1/4 260/1/4
f 255/1/4 256/1/4 261/1/4
f 261/1/4 256/1/4 262/1/4
f 257/2/4 258/2/4 263/2/4
f 263/2/4 258/2/4 264/2/4
f 265/1/4 266/1/4 269/1/4
f 269/1/4 266/1/4 270/1/4
f 269/2/4 270/2/4 271/2/4
f 271/2/4 270/2/4 272/2/4
f 267/1/4 268/1/4 275/1/4
f 275/1/4 268/1/4 276/1/4
f 273/1/4 274/1/4 279/1/4
f 279/1/4 274/1/4 280/1/4
f 277/2/4 278/2/4 283/2/4
f 283/2/4 278/2/4 284/2/4
f 283/1/4 284/1/4 285/1/4
f 285/1/4 284/1/4 286/1/4
f 281/1/4 282/1/4 287/1/4
f 287/1/4 282/1/4 288/1/4
f 289/1/4 290/1/4 291/1/4
f 291/1/4 290/1/4 292/1/4
f 291/2/4 292/2/4 293/2/4
f 293/2/4 292/2/4 294/2/4
f 295/2/4 296/2/4 297/2/4
f 297/2/4 296/2/4 298/2/4
f 297/1/4 298/1/4 299/1/4
f 299/1/4 298/1/4 300/1/4
f 301/1/4 302/1/4 303/1/4
f 303/1/4 302/1/4 304/1/4
f 305/1/4 306/1/4 307/1/4
f 307/1/4 306/1/4 308/1/4
f 313/2/5 310/2/5 309/2/5
f 314/2/5 310/2/5 313/2/5
f 315/2/5 312/2/5 311/2/5
f 316/2/5 312/2/5 315/2/5
f 321/2/5 318/2/5 317/2/5
f 322/2/5 318/2/5 321/2/5
f 323/2/5 320/2/5 319/2/5
f 324/2/5 320/2/5 323/2/5
f 327/1/5 326/1/5 325/1/5
f 328/1/5 326/1/5 327/1/5
f 333/2/5 330/2/5 329/2/5
f 334/2/5 330/2/5 333/2/5
f 335/2/5 332/2/5 331/2/5
f 336/2/5 332/2/5 335/2/5
f 343/1/5 338/1/5 337/1/5
f 343/2/5 339/2/5 338/2/5
f 344/2/5 339/2/5 343/2/5
f 345/2/5 341/2/5 340/2/5
f 346/1/5 342/1/5 341/1/5
f 346/2/5 341/2/5 345/2/5
f 349/1/5 348/1/5 347/1/5
f 350/1/5 348/1/5 349/1/5
f 353/1/5 352/1/5 351/1/5
f 354/1/5 352/1/5 353/1/5
f 355/1/5 343/1/5 337/1/5
f 358/1/5 342/1/5 346/1/5
f 359/1/5 355/1/5 337/1/5
f 360/2/5 356/2/5 355/2/5
f 360/1/5 355/1/5 359/1/5
f 361/2/5 356/2/5 360/2/5
f 362/2/5 358/2/5 357/2/5
f 363/1/5 342/1/5 358/1/5
f 363/2/5 358/2/5 362/2/5
f 364/1/5 342/1/5 363/1/5
f 371/1/5 366/1/5 365/1/5
f 372/2/5 367/2/5 366/2/5
f 372/1/5 366/1/5 371/1/5
f 373/2/5 367/2/5 372/2/5
f 374/2/5 369/2/5 368/2/5
f 375/1/5 370/1/5 369/1/5
f 375/2/5 369/2/5 374/2/5
f 376/1/5 370/1/5 375/1/5
f 379/1/5 378/1/5 377/1/5
f 380/1/5 378/1/5 379/1/5
f 383/1/5 382/1/5 381/1/5
f 384/1/5 382/1/5 383/1/5
f 391/1/5 386/1/5 385/1/5
f 392/2/5 387/2/5 386/2/5
f 392/1/5 386/1/5 391/1/5
f 393/2/5 387/2/5 392/2/5
f 394/2/5 389/2/5 388/2/5
f 395/1/5 390/1/5 389/1/5
f 395/2/5 389/2/5 394/2/5
f 396/1/5 390/1/5 395/1/5
f 401/1/5 398/1/5 397/1/5
f 402/1/5 398/1/5 401/1/5
f 403/1/5 398/1/5 402/1/5
f 404/1/5 400/1/5 399/1/5
f 405/1/5 400/1/5 404/1/5
f 406/1/5 400/1/5 405/1/5
f 409/1/5 408/1/5 407/1/5
f 410/1/5 408/1/5 409/1/5
f 413/1/5 412/1/5 411/1/5
f 414/1/5 412/1/5 413/1/5
f 421/1/5 417/1/5 416/1/5
f 421/1/5 416/1/5 415/1/5
f 422/1/5 417/1/5 421/1/5
f 423/1/5 420/1/5 419/1/5
f 423/1/5 419/1/5 418/1/5
f 424/1/5 420/1/5 423/1/5
f 425/1/6 426/1/6 427/1/6
f 427/1/6 426/1/6 428/1/6
f 429/1/6 430/1/6 431/1/6
f 431/1/6 430/1/6 432/1/6
f 433/1/6 434/1/6 437/1/6
f 437/1/6 434/1/6 438/1/6
f 435/1/6 436/1/6 439/1/6
f 439/1/6 436/1/6 440/1/6
f 441/1/6 442/1/6 443/1/6
f 443/1/6 442/1/6 444/1/6
f 445/1/6 446/1/6 447/1/6
f 447/1/6 446/1/6 448/1/6
f 449/1/6 450/1/6 453/1/6
f 453/1/6 450/1/6 454/1/6
f 451/1/6 452/1/6 455/1/6
f 455/1/6 452/1/6 456/1/6
f 457/1/6 458/1/6 461/1/6
f 459/1/6 460/1/6 462/1/6
f 457/1/6 461/1/6 463/1/6
f 461/1/6 462/1/6 463/1/6
f 462/1/6 460/1/6 464/1/6
f 463/1/6 462/1/6 464/1/6
f 457/1/6 463/1/6 465/1/6
f 465/1/6 463/1/6 466/1/6
f 464/1/6 460/1/6 467/1/6
f 467/1/6 460/1/6 468/1/6
