# MagicaVoxel @ Ephtracy

# group
o 

# material
mtllib Bld with Window-4.mtl
usemtl palette

# normals
vn -1 0 0
vn 1 0 0
vn 0 0 1
vn 0 0 -1
vn 0 -1 0
vn 0 1 0

# texcoords
vt 0.177734 0.5
vt 0.310547 0.5
vt 0.970703 0.5

# verts
v 14.6 2.2 -15.2
v 14.6 2.2 -16.6
v 14.6 2.3 -15.2
v 14.6 2.3 -15.3
v 14.6 2.3 -16.5
v 14.6 2.3 -16.6
v 14.6 2.4 -15.4
v 14.6 2.4 -16.4
v 14.6 3.6 -15.4
v 14.6 3.6 -16.4
v 14.6 3.7 -15.3
v 14.6 3.7 -16.5
v 14.7 2.3 -15.3
v 14.7 2.3 -16.5
v 14.7 2.4 -15.4
v 14.7 2.4 -16.4
v 14.7 3.6 -15.4
v 14.7 3.6 -16.4
v 14.7 3.7 -15.3
v 14.7 3.7 -16.5
v 14.8 2.2 -15.2
v 14.8 2.2 -16.6
v 14.8 2.3 -15.2
v 14.8 2.3 -16.6
v 14.6 2.2 -15.2
v 14.6 2.3 -15.2
v 14.8 2.2 -15.2
v 14.8 2.3 -15.2
v 14.6 2.3 -15.3
v 14.6 3.7 -15.3
v 14.7 2.3 -15.3
v 14.7 3.7 -15.3
v 14.6 2.3 -16.5
v 14.6 3.7 -16.5
v 14.7 2.3 -16.5
v 14.7 3.7 -16.5
v 14.6 2.2 -16.6
v 14.6 2.3 -16.6
v 14.8 2.2 -16.6
v 14.8 2.3 -16.6
v 14.6 2.2 -15.2
v 14.8 2.2 -15.2
v 14.6 2.2 -16.6
v 14.8 2.2 -16.6
v 14.6 2.3 -15.2
v 14.8 2.3 -15.2
v 14.6 2.3 -15.3
v 14.7 2.3 -15.3
v 14.6 2.3 -16.5
v 14.7 2.3 -16.5
v 14.6 2.3 -16.6
v 14.8 2.3 -16.6
v 14.6 3.7 -15.3
v 14.7 3.7 -15.3
v 14.6 3.7 -16.5
v 14.7 3.7 -16.5

# faces
f 3/2/1 2/2/1 1/2/1
f 4/2/1 2/2/1 3/2/1
f 5/2/1 2/2/1 4/2/1
f 6/2/1 2/2/1 5/2/1
f 7/1/1 5/1/1 4/1/1
f 8/1/1 5/1/1 7/1/1
f 9/1/1 7/1/1 4/1/1
f 9/3/1 8/3/1 7/3/1
f 10/1/1 5/1/1 8/1/1
f 10/3/1 8/3/1 9/3/1
f 11/1/1 9/1/1 4/1/1
f 11/1/1 10/1/1 9/1/1
f 12/1/1 5/1/1 10/1/1
f 12/1/1 10/1/1 11/1/1
f 13/1/2 14/1/2 15/1/2
f 15/1/2 14/1/2 16/1/2
f 13/1/2 15/1/2 17/1/2
f 15/3/2 16/3/2 17/3/2
f 16/1/2 14/1/2 18/1/2
f 17/3/2 16/3/2 18/3/2
f 13/1/2 17/1/2 19/1/2
f 17/1/2 18/1/2 19/1/2
f 18/1/2 14/1/2 20/1/2
f 19/1/2 18/1/2 20/1/2
f 21/2/2 22/2/2 23/2/2
f 23/2/2 22/2/2 24/2/2
f 27/2/3 26/2/3 25/2/3
f 28/2/3 26/2/3 27/2/3
f 31/1/3 30/1/3 29/1/3
f 32/1/3 30/1/3 31/1/3
f 33/1/4 34/1/4 35/1/4
f 35/1/4 34/1/4 36/1/4
f 37/2/4 38/2/4 39/2/4
f 39/2/4 38/2/4 40/2/4
f 43/2/5 42/2/5 41/2/5
f 44/2/5 42/2/5 43/2/5
f 45/2/6 46/2/6 47/2/6
f 47/2/6 46/2/6 48/2/6
f 48/2/6 46/2/6 50/2/6
f 49/2/6 50/2/6 51/2/6
f 50/2/6 46/2/6 52/2/6
f 51/2/6 50/2/6 52/2/6
f 53/1/6 54/1/6 55/1/6
f 55/1/6 54/1/6 56/1/6
