# MagicaVoxel @ Ephtracy

# group
o 

# material
mtllib Bld with Window-5.mtl
usemtl palette

# normals
vn -1 0 0
vn 1 0 0
vn 0 0 1
vn 0 0 -1
vn 0 -1 0
vn 0 1 0

# texcoords
vt 0.177734 0.5
vt 0.310547 0.5
vt 0.755859 0.5

# verts
v 2.3 2.2 -15.2
v 2.3 2.2 -16.6
v 2.3 2.3 -15.2
v 2.3 2.3 -15.3
v 2.3 2.3 -16.5
v 2.3 2.3 -16.6
v 2.3 2.4 -15.4
v 2.3 2.4 -16.4
v 2.3 2.9 -15.4
v 2.3 2.9 -16.4
v 2.3 3 -15.4
v 2.3 3 -16.4
v 2.3 3.6 -15.4
v 2.3 3.6 -16.4
v 2.3 3.7 -15.3
v 2.3 3.7 -16.5
v 2.4 2.3 -15.3
v 2.4 2.3 -16.5
v 2.4 2.4 -15.4
v 2.4 2.4 -16.4
v 2.4 2.9 -15.4
v 2.4 2.9 -16.4
v 2.4 3 -15.4
v 2.4 3 -16.4
v 2.4 3.6 -15.4
v 2.4 3.6 -16.4
v 2.4 3.7 -15.3
v 2.4 3.7 -16.5
v 2.5 2.2 -15.2
v 2.5 2.2 -16.6
v 2.5 2.3 -15.2
v 2.5 2.3 -16.6
v 2.3 2.2 -15.2
v 2.3 2.3 -15.2
v 2.5 2.2 -15.2
v 2.5 2.3 -15.2
v 2.3 2.3 -15.3
v 2.3 3.7 -15.3
v 2.4 2.3 -15.3
v 2.4 3.7 -15.3
v 2.3 2.3 -16.5
v 2.3 3.7 -16.5
v 2.4 2.3 -16.5
v 2.4 3.7 -16.5
v 2.3 2.2 -16.6
v 2.3 2.3 -16.6
v 2.5 2.2 -16.6
v 2.5 2.3 -16.6
v 2.3 2.2 -15.2
v 2.5 2.2 -15.2
v 2.3 2.2 -16.6
v 2.5 2.2 -16.6
v 2.3 2.3 -15.2
v 2.5 2.3 -15.2
v 2.3 2.3 -15.3
v 2.4 2.3 -15.3
v 2.3 2.3 -16.5
v 2.4 2.3 -16.5
v 2.3 2.3 -16.6
v 2.5 2.3 -16.6
v 2.3 3.7 -15.3
v 2.4 3.7 -15.3
v 2.3 3.7 -16.5
v 2.4 3.7 -16.5

# faces
f 3/2/1 2/2/1 1/2/1
f 4/2/1 2/2/1 3/2/1
f 5/2/1 2/2/1 4/2/1
f 6/2/1 2/2/1 5/2/1
f 7/1/1 5/1/1 4/1/1
f 8/1/1 5/1/1 7/1/1
f 9/1/1 7/1/1 4/1/1
f 9/3/1 8/3/1 7/3/1
f 10/1/1 5/1/1 8/1/1
f 10/3/1 8/3/1 9/3/1
f 11/1/1 9/1/1 4/1/1
f 11/1/1 10/1/1 9/1/1
f 12/1/1 5/1/1 10/1/1
f 12/1/1 10/1/1 11/1/1
f 13/1/1 11/1/1 4/1/1
f 13/3/1 12/3/1 11/3/1
f 14/1/1 5/1/1 12/1/1
f 14/3/1 12/3/1 13/3/1
f 15/1/1 13/1/1 4/1/1
f 15/1/1 14/1/1 13/1/1
f 16/1/1 5/1/1 14/1/1
f 16/1/1 14/1/1 15/1/1
f 17/1/2 18/1/2 19/1/2
f 19/1/2 18/1/2 20/1/2
f 17/1/2 19/1/2 21/1/2
f 19/3/2 20/3/2 21/3/2
f 20/1/2 18/1/2 22/1/2
f 21/3/2 20/3/2 22/3/2
f 17/1/2 21/1/2 23/1/2
f 21/1/2 22/1/2 23/1/2
f 22/1/2 18/1/2 24/1/2
f 23/1/2 22/1/2 24/1/2
f 17/1/2 23/1/2 25/1/2
f 23/3/2 24/3/2 25/3/2
f 24/1/2 18/1/2 26/1/2
f 25/3/2 24/3/2 26/3/2
f 17/1/2 25/1/2 27/1/2
f 25/1/2 26/1/2 27/1/2
f 26/1/2 18/1/2 28/1/2
f 27/1/2 26/1/2 28/1/2
f 29/2/2 30/2/2 31/2/2
f 31/2/2 30/2/2 32/2/2
f 35/2/3 34/2/3 33/2/3
f 36/2/3 34/2/3 35/2/3
f 39/1/3 38/1/3 37/1/3
f 40/1/3 38/1/3 39/1/3
f 41/1/4 42/1/4 43/1/4
f 43/1/4 42/1/4 44/1/4
f 45/2/4 46/2/4 47/2/4
f 47/2/4 46/2/4 48/2/4
f 51/2/5 50/2/5 49/2/5
f 52/2/5 50/2/5 51/2/5
f 53/2/6 54/2/6 55/2/6
f 55/2/6 54/2/6 56/2/6
f 56/2/6 54/2/6 58/2/6
f 57/2/6 58/2/6 59/2/6
f 58/2/6 54/2/6 60/2/6
f 59/2/6 58/2/6 60/2/6
f 61/1/6 62/1/6 63/1/6
f 63/1/6 62/1/6 64/1/6
