# MagicaVoxel @ Ephtracy

# group
o 

# material
mtllib HouseKitblockcreme.mtl
usemtl palette

# normals
vn -1 0 0
vn 1 0 0
vn 0 0 1
vn 0 0 -1
vn 0 -1 0
vn 0 1 0

# texcoords
vt 0.00585938 0.5
vt 0.142578 0.5
vt 0.701172 0.5
vt 0.958984 0.5

# verts
v -1.9 0 1.9
v -1.9 0 -1.9
v -1.9 0.7 1.5
v -1.9 0.7 0.5
v -1.9 0.7 -0.5
v -1.9 0.7 -1.5
v -1.9 0.8 1.5
v -1.9 0.8 0.5
v -1.9 0.8 -0.5
v -1.9 0.8 -1.5
v -1.9 1.8 1.5
v -1.9 1.8 0.5
v -1.9 1.8 -0.5
v -1.9 1.8 -1.5
v -1.9 2.9 1.9
v -1.9 2.9 -1.9
v -1.8 0.8 1.5
v -1.8 0.8 0.5
v -1.8 0.8 -0.5
v -1.8 0.8 -1.5
v -1.8 0.9 1.4
v -1.8 0.9 1.1
v -1.8 0.9 0.9
v -1.8 0.9 0.6
v -1.8 0.9 -0.6
v -1.8 0.9 -0.9
v -1.8 0.9 -1.1
v -1.8 0.9 -1.4
v -1.8 1.2 1.4
v -1.8 1.2 1.1
v -1.8 1.2 0.9
v -1.8 1.2 0.6
v -1.8 1.2 -0.6
v -1.8 1.2 -0.9
v -1.8 1.2 -1.1
v -1.8 1.2 -1.4
v -1.8 1.4 1.4
v -1.8 1.4 1.1
v -1.8 1.4 0.9
v -1.8 1.4 0.6
v -1.8 1.4 -0.6
v -1.8 1.4 -0.9
v -1.8 1.4 -1.1
v -1.8 1.4 -1.4
v -1.8 1.7 1.4
v -1.8 1.7 1.1
v -1.8 1.7 0.9
v -1.8 1.7 0.6
v -1.8 1.7 -0.6
v -1.8 1.7 -0.9
v -1.8 1.7 -1.1
v -1.8 1.7 -1.4
v -1.8 1.8 1.5
v -1.8 1.8 0.5
v -1.8 1.8 -0.5
v -1.8 1.8 -1.5
v -1.7 0.9 1.4
v -1.7 0.9 1.1
v -1.7 0.9 0.9
v -1.7 0.9 0.6
v -1.7 0.9 -0.6
v -1.7 0.9 -0.9
v -1.7 0.9 -1.1
v -1.7 0.9 -1.4
v -1.7 1.2 1.4
v -1.7 1.2 1.1
v -1.7 1.2 0.9
v -1.7 1.2 0.6
v -1.7 1.2 -0.6
v -1.7 1.2 -0.9
v -1.7 1.2 -1.1
v -1.7 1.2 -1.4
v -1.7 1.4 1.4
v -1.7 1.4 1.1
v -1.7 1.4 0.9
v -1.7 1.4 0.6
v -1.7 1.4 -0.6
v -1.7 1.4 -0.9
v -1.7 1.4 -1.1
v -1.7 1.4 -1.4
v -1.7 1.7 1.4
v -1.7 1.7 1.1
v -1.7 1.7 0.9
v -1.7 1.7 0.6
v -1.7 1.7 -0.6
v -1.7 1.7 -0.9
v -1.7 1.7 -1.1
v -1.7 1.7 -1.4
v -1.2 0.7 1.9
v -1.2 0.7 1.8
v -1.2 0.8 1.9
v -1.2 0.8 1.8
v -0.8 1 1.8
v -0.8 1 1.7
v -0.8 1.3 1.8
v -0.8 1.3 1.7
v -0.8 1.4 1.8
v -0.8 1.4 1.7
v -0.8 1.7 1.8
v -0.8 1.7 1.7
v -0.4 1 1.8
v -0.4 1 1.7
v -0.4 1.3 1.8
v -0.4 1.3 1.7
v -0.4 1.4 1.8
v -0.4 1.4 1.7
v -0.4 1.7 1.8
v -0.4 1.7 1.7
v -0.2 0 1.9
v -0.2 0 1.8
v -0.2 1.9 1.9
v -0.2 1.9 1.8
v 0.8 0.9 1.8
v 0.8 0.9 1.7
v 0.8 1.2 1.8
v 0.8 1.2 1.7
v 0.8 1.4 1.8
v 0.8 1.4 1.7
v 0.8 1.7 1.8
v 0.8 1.7 1.7
v 1.3 0.9 1.8
v 1.3 0.9 1.7
v 1.3 1.2 1.8
v 1.3 1.2 1.7
v 1.3 1.4 1.8
v 1.3 1.4 1.7
v 1.3 1.7 1.8
v 1.3 1.7 1.7
v 1.4 0.8 1.9
v 1.4 0.8 1.8
v 1.4 1.8 1.9
v 1.4 1.8 1.8
v -1.3 0 1.9
v -1.3 0 1.8
v -1.3 1.9 1.9
v -1.3 1.9 1.8
v -1.1 0.7 1.9
v -1.1 0.7 1.8
v -1.1 0.8 1.9
v -1.1 0.8 1.8
v -1.1 1 1.8
v -1.1 1 1.7
v -1.1 1.3 1.8
v -1.1 1.3 1.7
v -1.1 1.4 1.8
v -1.1 1.4 1.7
v -1.1 1.7 1.8
v -1.1 1.7 1.7
v -0.7 1 1.8
v -0.7 1 1.7
v -0.7 1.3 1.8
v -0.7 1.3 1.7
v -0.7 1.4 1.8
v -0.7 1.4 1.7
v -0.7 1.7 1.8
v -0.7 1.7 1.7
v 0.4 0.8 1.9
v 0.4 0.8 1.8
v 0.4 1.8 1.9
v 0.4 1.8 1.8
v 0.5 0.9 1.8
v 0.5 0.9 1.7
v 0.5 1.2 1.8
v 0.5 1.2 1.7
v 0.5 1.4 1.8
v 0.5 1.4 1.7
v 0.5 1.7 1.8
v 0.5 1.7 1.7
v 1 0.9 1.8
v 1 0.9 1.7
v 1 1.2 1.8
v 1 1.2 1.7
v 1 1.4 1.8
v 1 1.4 1.7
v 1 1.7 1.8
v 1 1.7 1.7
v 1.7 0.9 0.4
v 1.7 0.9 0.1
v 1.7 0.9 -0.1
v 1.7 0.9 -0.4
v 1.7 1.2 0.4
v 1.7 1.2 0.1
v 1.7 1.2 -0.1
v 1.7 1.2 -0.4
v 1.7 1.4 0.4
v 1.7 1.4 0.1
v 1.7 1.4 -0.1
v 1.7 1.4 -0.4
v 1.7 1.7 0.4
v 1.7 1.7 0.1
v 1.7 1.7 -0.1
v 1.7 1.7 -0.4
v 1.8 0.8 0.5
v 1.8 0.8 -0.5
v 1.8 0.9 0.4
v 1.8 0.9 0.1
v 1.8 0.9 -0.1
v 1.8 0.9 -0.4
v 1.8 1.2 0.4
v 1.8 1.2 0.1
v 1.8 1.2 -0.1
v 1.8 1.2 -0.4
v 1.8 1.4 0.4
v 1.8 1.4 0.1
v 1.8 1.4 -0.1
v 1.8 1.4 -0.4
v 1.8 1.7 0.4
v 1.8 1.7 0.1
v 1.8 1.7 -0.1
v 1.8 1.7 -0.4
v 1.8 1.8 0.5
v 1.8 1.8 -0.5
v 1.9 0 1.9
v 1.9 0 -1.9
v 1.9 0.7 0.5
v 1.9 0.7 -0.5
v 1.9 0.8 0.5
v 1.9 0.8 -0.5
v 1.9 1.8 0.5
v 1.9 1.8 -0.5
v 1.9 2.9 1.9
v 1.9 2.9 -1.9
v -1.9 0 1.9
v -1.9 2.9 1.9
v -1.3 0 1.9
v -1.3 1.9 1.9
v -1.2 0.7 1.9
v -1.2 0.8 1.9
v -1.1 0.7 1.9
v -1.1 0.8 1.9
v -0.2 0 1.9
v -0.2 1.9 1.9
v 0.4 0.7 1.9
v 0.4 0.8 1.9
v 0.4 1.8 1.9
v 1.4 0.7 1.9
v 1.4 0.8 1.9
v 1.4 1.8 1.9
v 1.9 0 1.9
v 1.9 2.9 1.9
v -1.3 0 1.8
v -1.3 1.9 1.8
v -1.2 0.7 1.8
v -1.2 0.8 1.8
v -1.1 0.7 1.8
v -1.1 0.8 1.8
v -1.1 1 1.8
v -1.1 1.3 1.8
v -1.1 1.4 1.8
v -1.1 1.7 1.8
v -0.8 1 1.8
v -0.8 1.3 1.8
v -0.8 1.4 1.8
v -0.8 1.7 1.8
v -0.7 1 1.8
v -0.7 1.3 1.8
v -0.7 1.4 1.8
v -0.7 1.7 1.8
v -0.4 1 1.8
v -0.4 1.3 1.8
v -0.4 1.4 1.8
v -0.4 1.7 1.8
v -0.2 0 1.8
v -0.2 1.9 1.8
v 0.4 0.8 1.8
v 0.4 1.8 1.8
v 0.5 0.9 1.8
v 0.5 1.2 1.8
v 0.5 1.4 1.8
v 0.5 1.7 1.8
v 0.8 0.9 1.8
v 0.8 1.2 1.8
v 0.8 1.4 1.8
v 0.8 1.7 1.8
v 1 0.9 1.8
v 1 1.2 1.8
v 1 1.4 1.8
v 1 1.7 1.8
v 1.3 0.9 1.8
v 1.3 1.2 1.8
v 1.3 1.4 1.8
v 1.3 1.7 1.8
v 1.4 0.8 1.8
v 1.4 1.8 1.8
v -1.1 1 1.7
v -1.1 1.3 1.7
v -1.1 1.4 1.7
v -1.1 1.7 1.7
v -0.8 1 1.7
v -0.8 1.3 1.7
v -0.8 1.4 1.7
v -0.8 1.7 1.7
v -0.7 1 1.7
v -0.7 1.3 1.7
v -0.7 1.4 1.7
v -0.7 1.7 1.7
v -0.4 1 1.7
v -0.4 1.3 1.7
v -0.4 1.4 1.7
v -0.4 1.7 1.7
v 0.5 0.9 1.7
v 0.5 1.2 1.7
v 0.5 1.4 1.7
v 0.5 1.7 1.7
v 0.8 0.9 1.7
v 0.8 1.2 1.7
v 0.8 1.4 1.7
v 0.8 1.7 1.7
v 1 0.9 1.7
v 1 1.2 1.7
v 1 1.4 1.7
v 1 1.7 1.7
v 1.3 0.9 1.7
v 1.3 1.2 1.7
v 1.3 1.4 1.7
v 1.3 1.7 1.7
v -1.8 0.9 1.1
v -1.8 1.2 1.1
v -1.8 1.4 1.1
v -1.8 1.7 1.1
v -1.7 0.9 1.1
v -1.7 1.2 1.1
v -1.7 1.4 1.1
v -1.7 1.7 1.1
v -1.8 0.9 0.6
v -1.8 1.2 0.6
v -1.8 1.4 0.6
v -1.8 1.7 0.6
v -1.7 0.9 0.6
v -1.7 1.2 0.6
v -1.7 1.4 0.6
v -1.7 1.7 0.6
v -1.9 0.8 0.5
v -1.9 1.8 0.5
v -1.8 0.8 0.5
v -1.8 1.8 0.5
v 1.7 0.9 0.1
v 1.7 1.2 0.1
v 1.7 1.4 0.1
v 1.7 1.7 0.1
v 1.8 0.9 0.1
v 1.8 1.2 0.1
v 1.8 1.4 0.1
v 1.8 1.7 0.1
v 1.7 0.9 -0.4
v 1.7 1.2 -0.4
v 1.7 1.4 -0.4
v 1.7 1.7 -0.4
v 1.8 0.9 -0.4
v 1.8 1.2 -0.4
v 1.8 1.4 -0.4
v 1.8 1.7 -0.4
v 1.8 0.8 -0.5
v 1.8 1.8 -0.5
v 1.9 0.8 -0.5
v 1.9 1.8 -0.5
v -1.8 0.9 -0.9
v -1.8 1.2 -0.9
v -1.8 1.4 -0.9
v -1.8 1.7 -0.9
v -1.7 0.9 -0.9
v -1.7 1.2 -0.9
v -1.7 1.4 -0.9
v -1.7 1.7 -0.9
v -1.8 0.9 -1.4
v -1.8 1.2 -1.4
v -1.8 1.4 -1.4
v -1.8 1.7 -1.4
v -1.7 0.9 -1.4
v -1.7 1.2 -1.4
v -1.7 1.4 -1.4
v -1.7 1.7 -1.4
v -1.9 0.8 -1.5
v -1.9 1.8 -1.5
v -1.8 0.8 -1.5
v -1.8 1.8 -1.5
v -1.9 0.8 1.5
v -1.9 1.8 1.5
v -1.8 0.8 1.5
v -1.8 1.8 1.5
v -1.8 0.9 1.4
v -1.8 1.2 1.4
v -1.8 1.4 1.4
v -1.8 1.7 1.4
v -1.7 0.9 1.4
v -1.7 1.2 1.4
v -1.7 1.4 1.4
v -1.7 1.7 1.4
v -1.8 0.9 0.9
v -1.8 1.2 0.9
v -1.8 1.4 0.9
v -1.8 1.7 0.9
v -1.7 0.9 0.9
v -1.7 1.2 0.9
v -1.7 1.4 0.9
v -1.7 1.7 0.9
v 1.8 0.8 0.5
v 1.8 1.8 0.5
v 1.9 0.8 0.5
v 1.9 1.8 0.5
v 1.7 0.9 0.4
v 1.7 1.2 0.4
v 1.7 1.4 0.4
v 1.7 1.7 0.4
v 1.8 0.9 0.4
v 1.8 1.2 0.4
v 1.8 1.4 0.4
v 1.8 1.7 0.4
v 1.7 0.9 -0.1
v 1.7 1.2 -0.1
v 1.7 1.4 -0.1
v 1.7 1.7 -0.1
v 1.8 0.9 -0.1
v 1.8 1.2 -0.1
v 1.8 1.4 -0.1
v 1.8 1.7 -0.1
v -1.9 0.8 -0.5
v -1.9 1.8 -0.5
v -1.8 0.8 -0.5
v -1.8 1.8 -0.5
v -1.8 0.9 -0.6
v -1.8 1.2 -0.6
v -1.8 1.4 -0.6
v -1.8 1.7 -0.6
v -1.7 0.9 -0.6
v -1.7 1.2 -0.6
v -1.7 1.4 -0.6
v -1.7 1.7 -0.6
v -1.8 0.9 -1.1
v -1.8 1.2 -1.1
v -1.8 1.4 -1.1
v -1.8 1.7 -1.1
v -1.7 0.9 -1.1
v -1.7 1.2 -1.1
v -1.7 1.4 -1.1
v -1.7 1.7 -1.1
v -1.9 0 -1.9
v -1.9 2.9 -1.9
v 1.9 0 -1.9
v 1.9 2.9 -1.9
v -1.9 0 1.9
v -1.3 0 1.9
v -0.2 0 1.9
v 1.9 0 1.9
v -1.3 0 1.8
v -0.2 0 1.8
v -1.3 0 1.7
v -0.2 0 1.7
v -1.9 0 -1.9
v 1.9 0 -1.9
v -1.2 0.7 1.9
v -1.1 0.7 1.9
v -1.2 0.7 1.8
v -1.1 0.7 1.8
v 0.5 1.2 1.8
v 0.8 1.2 1.8
v 1 1.2 1.8
v 1.3 1.2 1.8
v 0.5 1.2 1.7
v 0.8 1.2 1.7
v 1 1.2 1.7
v 1.3 1.2 1.7
v -1.8 1.2 1.4
v -1.7 1.2 1.4
v -1.8 1.2 1.1
v -1.7 1.2 1.1
v -1.8 1.2 0.9
v -1.7 1.2 0.9
v -1.8 1.2 0.6
v -1.7 1.2 0.6
v 1.7 1.2 0.4
v 1.8 1.2 0.4
v 1.7 1.2 0.1
v 1.8 1.2 0.1
v 1.7 1.2 -0.1
v 1.8 1.2 -0.1
v 1.7 1.2 -0.4
v 1.8 1.2 -0.4
v -1.8 1.2 -0.6
v -1.7 1.2 -0.6
v -1.8 1.2 -0.9
v -1.7 1.2 -0.9
v -1.8 1.2 -1.1
v -1.7 1.2 -1.1
v -1.8 1.2 -1.4
v -1.7 1.2 -1.4
v -1.1 1.3 1.8
v -0.8 1.3 1.8
v -0.7 1.3 1.8
v -0.4 1.3 1.8
v -1.1 1.3 1.7
v -0.8 1.3 1.7
v -0.7 1.3 1.7
v -0.4 1.3 1.7
v -1.1 1.7 1.8
v -0.8 1.7 1.8
v -0.7 1.7 1.8
v -0.4 1.7 1.8
v 0.5 1.7 1.8
v 0.8 1.7 1.8
v 1 1.7 1.8
v 1.3 1.7 1.8
v -1.1 1.7 1.7
v -0.8 1.7 1.7
v -0.7 1.7 1.7
v -0.4 1.7 1.7
v 0.5 1.7 1.7
v 0.8 1.7 1.7
v 1 1.7 1.7
v 1.3 1.7 1.7
v -1.8 1.7 1.4
v -1.7 1.7 1.4
v -1.8 1.7 1.1
v -1.7 1.7 1.1
v -1.8 1.7 0.9
v -1.7 1.7 0.9
v -1.8 1.7 0.6
v -1.7 1.7 0.6
v 1.7 1.7 0.4
v 1.8 1.7 0.4
v 1.7 1.7 0.1
v 1.8 1.7 0.1
v 1.7 1.7 -0.1
v 1.8 1.7 -0.1
v 1.7 1.7 -0.4
v 1.8 1.7 -0.4
v -1.8 1.7 -0.6
v -1.7 1.7 -0.6
v -1.8 1.7 -0.9
v -1.7 1.7 -0.9
v -1.8 1.7 -1.1
v -1.7 1.7 -1.1
v -1.8 1.7 -1.4
v -1.7 1.7 -1.4
v 0.4 1.8 1.9
v 1.4 1.8 1.9
v 0.4 1.8 1.8
v 1.4 1.8 1.8
v -1.9 1.8 1.5
v -1.8 1.8 1.5
v -1.9 1.8 0.5
v -1.8 1.8 0.5
v 1.8 1.8 0.5
v 1.9 1.8 0.5
v -1.9 1.8 -0.5
v -1.8 1.8 -0.5
v 1.8 1.8 -0.5
v 1.9 1.8 -0.5
v -1.9 1.8 -1.5
v -1.8 1.8 -1.5
v -1.3 1.9 1.9
v -0.2 1.9 1.9
v -1.3 1.9 1.8
v -0.2 1.9 1.8
v -1.2 0.8 1.9
v -1.1 0.8 1.9
v 0.4 0.8 1.9
v 1.4 0.8 1.9
v -1.2 0.8 1.8
v -1.1 0.8 1.8
v 0.4 0.8 1.8
v 1.4 0.8 1.8
v -1.9 0.8 1.5
v -1.8 0.8 1.5
v -1.9 0.8 0.5
v -1.8 0.8 0.5
v 1.8 0.8 0.5
v 1.9 0.8 0.5
v -1.9 0.8 -0.5
v -1.8 0.8 -0.5
v 1.8 0.8 -0.5
v 1.9 0.8 -0.5
v -1.9 0.8 -1.5
v -1.8 0.8 -1.5
v 0.5 0.9 1.8
v 0.8 0.9 1.8
v 1 0.9 1.8
v 1.3 0.9 1.8
v 0.5 0.9 1.7
v 0.8 0.9 1.7
v 1 0.9 1.7
v 1.3 0.9 1.7
v -1.8 0.9 1.4
v -1.7 0.9 1.4
v -1.8 0.9 1.1
v -1.7 0.9 1.1
v -1.8 0.9 0.9
v -1.7 0.9 0.9
v -1.8 0.9 0.6
v -1.7 0.9 0.6
v 1.7 0.9 0.4
v 1.8 0.9 0.4
v 1.7 0.9 0.1
v 1.8 0.9 0.1
v 1.7 0.9 -0.1
v 1.8 0.9 -0.1
v 1.7 0.9 -0.4
v 1.8 0.9 -0.4
v -1.8 0.9 -0.6
v -1.7 0.9 -0.6
v -1.8 0.9 -0.9
v -1.7 0.9 -0.9
v -1.8 0.9 -1.1
v -1.7 0.9 -1.1
v -1.8 0.9 -1.4
v -1.7 0.9 -1.4
v -1.1 1 1.8
v -0.8 1 1.8
v -0.7 1 1.8
v -0.4 1 1.8
v -1.1 1 1.7
v -0.8 1 1.7
v -0.7 1 1.7
v -0.4 1 1.7
v -1.1 1.4 1.8
v -0.8 1.4 1.8
v -0.7 1.4 1.8
v -0.4 1.4 1.8
v 0.5 1.4 1.8
v 0.8 1.4 1.8
v 1 1.4 1.8
v 1.3 1.4 1.8
v -1.1 1.4 1.7
v -0.8 1.4 1.7
v -0.7 1.4 1.7
v -0.4 1.4 1.7
v 0.5 1.4 1.7
v 0.8 1.4 1.7
v 1 1.4 1.7
v 1.3 1.4 1.7
v -1.8 1.4 1.4
v -1.7 1.4 1.4
v -1.8 1.4 1.1
v -1.7 1.4 1.1
v -1.8 1.4 0.9
v -1.7 1.4 0.9
v -1.8 1.4 0.6
v -1.7 1.4 0.6
v 1.7 1.4 0.4
v 1.8 1.4 0.4
v 1.7 1.4 0.1
v 1.8 1.4 0.1
v 1.7 1.4 -0.1
v 1.8 1.4 -0.1
v 1.7 1.4 -0.4
v 1.8 1.4 -0.4
v -1.8 1.4 -0.6
v -1.7 1.4 -0.6
v -1.8 1.4 -0.9
v -1.7 1.4 -0.9
v -1.8 1.4 -1.1
v -1.7 1.4 -1.1
v -1.8 1.4 -1.4
v -1.7 1.4 -1.4
v -1.9 2.9 1.9
v 1.9 2.9 1.9
v -1.9 2.9 -1.9
v 1.9 2.9 -1.9

# faces
f 3/1/1 2/1/1 1/1/1
f 4/1/1 2/1/1 3/1/1
f 5/1/1 2/1/1 4/1/1
f 6/1/1 2/1/1 5/1/1
f 7/1/1 3/1/1 1/1/1
f 7/4/1 4/4/1 3/4/1
f 8/1/1 5/1/1 4/1/1
f 8/4/1 4/4/1 7/4/1
f 9/4/1 6/4/1 5/4/1
f 9/1/1 5/1/1 8/1/1
f 10/1/1 2/1/1 6/1/1
f 10/4/1 6/4/1 9/4/1
f 11/1/1 7/1/1 1/1/1
f 12/1/1 9/1/1 8/1/1
f 13/1/1 9/1/1 12/1/1
f 14/1/1 2/1/1 10/1/1
f 15/1/1 11/1/1 1/1/1
f 15/1/1 14/1/1 13/1/1
f 15/1/1 13/1/1 12/1/1
f 15/1/1 12/1/1 11/1/1
f 16/1/1 2/1/1 14/1/1
f 16/1/1 14/1/1 15/1/1
f 21/4/1 18/4/1 17/4/1
f 22/4/1 18/4/1 21/4/1
f 23/4/1 18/4/1 22/4/1
f 24/4/1 18/4/1 23/4/1
f 25/4/1 20/4/1 19/4/1
f 26/4/1 20/4/1 25/4/1
f 27/4/1 20/4/1 26/4/1
f 28/4/1 20/4/1 27/4/1
f 29/4/1 21/4/1 17/4/1
f 30/4/1 23/4/1 22/4/1
f 31/4/1 23/4/1 30/4/1
f 32/4/1 18/4/1 24/4/1
f 33/4/1 25/4/1 19/4/1
f 34/4/1 27/4/1 26/4/1
f 35/4/1 27/4/1 34/4/1
f 36/4/1 20/4/1 28/4/1
f 37/4/1 31/4/1 30/4/1
f 37/4/1 29/4/1 17/4/1
f 37/4/1 32/4/1 31/4/1
f 37/4/1 30/4/1 29/4/1
f 38/4/1 32/4/1 37/4/1
f 39/4/1 32/4/1 38/4/1
f 40/4/1 18/4/1 32/4/1
f 40/4/1 32/4/1 39/4/1
f 41/4/1 36/4/1 35/4/1
f 41/4/1 35/4/1 34/4/1
f 41/4/1 33/4/1 19/4/1
f 41/4/1 34/4/1 33/4/1
f 42/4/1 36/4/1 41/4/1
f 43/4/1 36/4/1 42/4/1
f 44/4/1 20/4/1 36/4/1
f 44/4/1 36/4/1 43/4/1
f 45/4/1 37/4/1 17/4/1
f 46/4/1 39/4/1 38/4/1
f 47/4/1 39/4/1 46/4/1
f 48/4/1 18/4/1 40/4/1
f 49/4/1 41/4/1 19/4/1
f 50/4/1 43/4/1 42/4/1
f 51/4/1 43/4/1 50/4/1
f 52/4/1 20/4/1 44/4/1
f 53/4/1 47/4/1 46/4/1
f 53/4/1 48/4/1 47/4/1
f 53/4/1 45/4/1 17/4/1
f 53/4/1 46/4/1 45/4/1
f 54/4/1 18/4/1 48/4/1
f 54/4/1 48/4/1 53/4/1
f 55/4/1 52/4/1 51/4/1
f 55/4/1 51/4/1 50/4/1
f 55/4/1 49/4/1 19/4/1
f 55/4/1 50/4/1 49/4/1
f 56/4/1 20/4/1 52/4/1
f 56/4/1 52/4/1 55/4/1
f 65/2/1 58/2/1 57/2/1
f 66/2/1 58/2/1 65/2/1
f 67/2/1 60/2/1 59/2/1
f 68/2/1 60/2/1 67/2/1
f 69/2/1 62/2/1 61/2/1
f 70/2/1 62/2/1 69/2/1
f 71/2/1 64/2/1 63/2/1
f 72/2/1 64/2/1 71/2/1
f 81/2/1 74/2/1 73/2/1
f 82/2/1 74/2/1 81/2/1
f 83/2/1 76/2/1 75/2/1
f 84/2/1 76/2/1 83/2/1
f 85/2/1 78/2/1 77/2/1
f 86/2/1 78/2/1 85/2/1
f 87/2/1 80/2/1 79/2/1
f 88/2/1 80/2/1 87/2/1
f 91/3/1 90/3/1 89/3/1
f 92/3/1 90/3/1 91/3/1
f 95/4/1 94/4/1 93/4/1
f 96/4/1 94/4/1 95/4/1
f 99/4/1 98/4/1 97/4/1
f 100/4/1 98/4/1 99/4/1
f 103/4/1 102/4/1 101/4/1
f 104/4/1 102/4/1 103/4/1
f 107/4/1 106/4/1 105/4/1
f 108/4/1 106/4/1 107/4/1
f 111/1/1 110/1/1 109/1/1
f 112/1/1 110/1/1 111/1/1
f 115/4/1 114/4/1 113/4/1
f 116/4/1 114/4/1 115/4/1
f 119/4/1 118/4/1 117/4/1
f 120/4/1 118/4/1 119/4/1
f 123/4/1 122/4/1 121/4/1
f 124/4/1 122/4/1 123/4/1
f 127/4/1 126/4/1 125/4/1
f 128/4/1 126/4/1 127/4/1
f 131/1/1 130/1/1 129/1/1
f 132/1/1 130/1/1 131/1/1
f 133/1/2 134/1/2 135/1/2
f 135/1/2 134/1/2 136/1/2
f 137/3/2 138/3/2 139/3/2
f 139/3/2 138/3/2 140/3/2
f 141/4/2 142/4/2 143/4/2
f 143/4/2 142/4/2 144/4/2
f 145/4/2 146/4/2 147/4/2
f 147/4/2 146/4/2 148/4/2
f 149/4/2 150/4/2 151/4/2
f 151/4/2 150/4/2 152/4/2
f 153/4/2 154/4/2 155/4/2
f 155/4/2 154/4/2 156/4/2
f 157/1/2 158/1/2 159/1/2
f 159/1/2 158/1/2 160/1/2
f 161/4/2 162/4/2 163/4/2
f 163/4/2 162/4/2 164/4/2
f 165/4/2 166/4/2 167/4/2
f 167/4/2 166/4/2 168/4/2
f 169/4/2 170/4/2 171/4/2
f 171/4/2 170/4/2 172/4/2
f 173/4/2 174/4/2 175/4/2
f 175/4/2 174/4/2 176/4/2
f 177/2/2 178/2/2 181/2/2
f 181/2/2 178/2/2 182/2/2
f 179/2/2 180/2/2 183/2/2
f 183/2/2 180/2/2 184/2/2
f 185/2/2 186/2/2 189/2/2
f 189/2/2 186/2/2 190/2/2
f 187/2/2 188/2/2 191/2/2
f 191/2/2 188/2/2 192/2/2
f 193/4/2 194/4/2 195/4/2
f 195/4/2 194/4/2 196/4/2
f 196/4/2 194/4/2 197/4/2
f 197/4/2 194/4/2 198/4/2
f 193/4/2 195/4/2 199/4/2
f 196/4/2 197/4/2 200/4/2
f 200/4/2 197/4/2 201/4/2
f 198/4/2 194/4/2 202/4/2
f 200/4/2 201/4/2 203/4/2
f 201/4/2 202/4/2 203/4/2
f 193/4/2 199/4/2 203/4/2
f 199/4/2 200/4/2 203/4/2
f 203/4/2 202/4/2 204/4/2
f 204/4/2 202/4/2 205/4/2
f 202/4/2 194/4/2 206/4/2
f 205/4/2 202/4/2 206/4/2
f 193/4/2 203/4/2 207/4/2
f 204/4/2 205/4/2 208/4/2
f 208/4/2 205/4/2 209/4/2
f 206/4/2 194/4/2 210/4/2
f 193/4/2 207/4/2 211/4/2
f 209/4/2 210/4/2 211/4/2
f 208/4/2 209/4/2 211/4/2
f 207/4/2 208/4/2 211/4/2
f 210/4/2 194/4/2 212/4/2
f 211/4/2 210/4/2 212/4/2
f 213/1/2 214/1/2 215/1/2
f 215/1/2 214/1/2 216/1/2
f 213/1/2 215/1/2 217/1/2
f 215/4/2 216/4/2 217/4/2
f 216/1/2 214/1/2 218/1/2
f 217/4/2 216/4/2 218/4/2
f 213/1/2 217/1/2 219/1/2
f 218/1/2 214/1/2 220/1/2
f 213/1/2 219/1/2 221/1/2
f 219/1/2 220/1/2 221/1/2
f 220/1/2 214/1/2 222/1/2
f 221/1/2 220/1/2 222/1/2
f 225/1/3 224/1/3 223/1/3
f 226/1/3 224/1/3 225/1/3
f 229/3/3 228/3/3 227/3/3
f 230/3/3 228/3/3 229/3/3
f 232/1/3 224/1/3 226/1/3
f 233/1/3 232/1/3 231/1/3
f 234/1/3 232/1/3 233/1/3
f 235/1/3 232/1/3 234/1/3
f 236/1/3 233/1/3 231/1/3
f 236/4/3 234/4/3 233/4/3
f 237/4/3 234/4/3 236/4/3
f 238/1/3 232/1/3 235/1/3
f 239/1/3 237/1/3 236/1/3
f 239/1/3 238/1/3 237/1/3
f 239/1/3 236/1/3 231/1/3
f 240/1/3 224/1/3 232/1/3
f 240/1/3 238/1/3 239/1/3
f 240/1/3 232/1/3 238/1/3
f 243/4/3 242/4/3 241/4/3
f 244/4/3 242/4/3 243/4/3
f 245/4/3 243/4/3 241/4/3
f 246/4/3 242/4/3 244/4/3
f 247/4/3 242/4/3 246/4/3
f 248/4/3 242/4/3 247/4/3
f 249/4/3 242/4/3 248/4/3
f 250/4/3 242/4/3 249/4/3
f 251/4/3 246/4/3 245/4/3
f 251/4/3 247/4/3 246/4/3
f 252/4/3 249/4/3 248/4/3
f 253/4/3 249/4/3 252/4/3
f 254/4/3 242/4/3 250/4/3
f 255/4/3 253/4/3 252/4/3
f 255/4/3 254/4/3 253/4/3
f 255/4/3 251/4/3 245/4/3
f 255/4/3 252/4/3 251/4/3
f 256/4/3 254/4/3 255/4/3
f 257/4/3 254/4/3 256/4/3
f 258/4/3 242/4/3 254/4/3
f 258/4/3 254/4/3 257/4/3
f 259/4/3 255/4/3 245/4/3
f 260/4/3 257/4/3 256/4/3
f 261/4/3 257/4/3 260/4/3
f 262/4/3 242/4/3 258/4/3
f 263/4/3 245/4/3 241/4/3
f 263/4/3 262/4/3 261/4/3
f 263/4/3 259/4/3 245/4/3
f 263/4/3 261/4/3 260/4/3
f 263/4/3 260/4/3 259/4/3
f 264/4/3 242/4/3 262/4/3
f 264/4/3 262/4/3 263/4/3
f 267/4/3 266/4/3 265/4/3
f 268/4/3 266/4/3 267/4/3
f 269/4/3 266/4/3 268/4/3
f 270/4/3 266/4/3 269/4/3
f 271/4/3 267/4/3 265/4/3
f 272/4/3 269/4/3 268/4/3
f 273/4/3 269/4/3 272/4/3
f 274/4/3 266/4/3 270/4/3
f 275/4/3 273/4/3 272/4/3
f 275/4/3 274/4/3 273/4/3
f 275/4/3 271/4/3 265/4/3
f 275/4/3 272/4/3 271/4/3
f 276/4/3 274/4/3 275/4/3
f 277/4/3 274/4/3 276/4/3
f 278/4/3 266/4/3 274/4/3
f 278/4/3 274/4/3 277/4/3
f 279/4/3 275/4/3 265/4/3
f 280/4/3 277/4/3 276/4/3
f 281/4/3 277/4/3 280/4/3
f 282/4/3 266/4/3 278/4/3
f 283/4/3 279/4/3 265/4/3
f 283/4/3 282/4/3 281/4/3
f 283/4/3 281/4/3 280/4/3
f 283/4/3 280/4/3 279/4/3
f 284/4/3 266/4/3 282/4/3
f 284/4/3 282/4/3 283/4/3
f 289/2/3 286/2/3 285/2/3
f 290/2/3 286/2/3 289/2/3
f 291/2/3 288/2/3 287/2/3
f 292/2/3 288/2/3 291/2/3
f 297/2/3 294/2/3 293/2/3
f 298/2/3 294/2/3 297/2/3
f 299/2/3 296/2/3 295/2/3
f 300/2/3 296/2/3 299/2/3
f 305/2/3 302/2/3 301/2/3
f 306/2/3 302/2/3 305/2/3
f 307/2/3 304/2/3 303/2/3
f 308/2/3 304/2/3 307/2/3
f 313/2/3 310/2/3 309/2/3
f 314/2/3 310/2/3 313/2/3
f 315/2/3 312/2/3 311/2/3
f 316/2/3 312/2/3 315/2/3
f 321/4/3 318/4/3 317/4/3
f 322/4/3 318/4/3 321/4/3
f 323/4/3 320/4/3 319/4/3
f 324/4/3 320/4/3 323/4/3
f 329/4/3 326/4/3 325/4/3
f 330/4/3 326/4/3 329/4/3
f 331/4/3 328/4/3 327/4/3
f 332/4/3 328/4/3 331/4/3
f 335/1/3 334/1/3 333/1/3
f 336/1/3 334/1/3 335/1/3
f 341/4/3 338/4/3 337/4/3
f 342/4/3 338/4/3 341/4/3
f 343/4/3 340/4/3 339/4/3
f 344/4/3 340/4/3 343/4/3
f 349/4/3 346/4/3 345/4/3
f 350/4/3 346/4/3 349/4/3
f 351/4/3 348/4/3 347/4/3
f 352/4/3 348/4/3 351/4/3
f 355/1/3 354/1/3 353/1/3
f 356/1/3 354/1/3 355/1/3
f 361/4/3 358/4/3 357/4/3
f 362/4/3 358/4/3 361/4/3
f 363/4/3 360/4/3 359/4/3
f 364/4/3 360/4/3 363/4/3
f 369/4/3 366/4/3 365/4/3
f 370/4/3 366/4/3 369/4/3
f 371/4/3 368/4/3 367/4/3
f 372/4/3 368/4/3 371/4/3
f 375/1/3 374/1/3 373/1/3
f 376/1/3 374/1/3 375/1/3
f 377/1/4 378/1/4 379/1/4
f 379/1/4 378/1/4 380/1/4
f 381/4/4 382/4/4 385/4/4
f 385/4/4 382/4/4 386/4/4
f 383/4/4 384/4/4 387/4/4
f 387/4/4 384/4/4 388/4/4
f 389/4/4 390/4/4 393/4/4
f 393/4/4 390/4/4 394/4/4
f 391/4/4 392/4/4 395/4/4
f 395/4/4 392/4/4 396/4/4
f 397/1/4 398/1/4 399/1/4
f 399/1/4 398/1/4 400/1/4
f 401/4/4 402/4/4 405/4/4
f 405/4/4 402/4/4 406/4/4
f 403/4/4 404/4/4 407/4/4
f 407/4/4 404/4/4 408/4/4
f 409/4/4 410/4/4 413/4/4
f 413/4/4 410/4/4 414/4/4
f 411/4/4 412/4/4 415/4/4
f 415/4/4 412/4/4 416/4/4
f 417/1/4 418/1/4 419/1/4
f 419/1/4 418/1/4 420/1/4
f 421/4/4 422/4/4 425/4/4
f 425/4/4 422/4/4 426/4/4
f 423/4/4 424/4/4 427/4/4
f 427/4/4 424/4/4 428/4/4
f 429/4/4 430/4/4 433/4/4
f 433/4/4 430/4/4 434/4/4
f 431/4/4 432/4/4 435/4/4
f 435/4/4 432/4/4 436/4/4
f 437/1/4 438/1/4 439/1/4
f 439/1/4 438/1/4 440/1/4
f 445/1/5 442/1/5 441/1/5
f 446/1/5 444/1/5 443/1/5
f 447/1/5 445/1/5 441/1/5
f 447/4/5 446/4/5 445/4/5
f 448/1/5 444/1/5 446/1/5
f 448/4/5 446/4/5 447/4/5
f 449/1/5 447/1/5 441/1/5
f 449/1/5 448/1/5 447/1/5
f 450/1/5 444/1/5 448/1/5
f 450/1/5 448/1/5 449/1/5
f 453/3/5 452/3/5 451/3/5
f 454/3/5 452/3/5 453/3/5
f 459/4/5 456/4/5 455/4/5
f 460/4/5 456/4/5 459/4/5
f 461/4/5 458/4/5 457/4/5
f 462/4/5 458/4/5 461/4/5
f 465/4/5 464/4/5 463/4/5
f 466/4/5 464/4/5 465/4/5
f 469/4/5 468/4/5 467/4/5
f 470/4/5 468/4/5 469/4/5
f 473/4/5 472/4/5 471/4/5
f 474/4/5 472/4/5 473/4/5
f 477/4/5 476/4/5 475/4/5
f 478/4/5 476/4/5 477/4/5
f 481/4/5 480/4/5 479/4/5
f 482/4/5 480/4/5 481/4/5
f 485/4/5 484/4/5 483/4/5
f 486/4/5 484/4/5 485/4/5
f 491/4/5 488/4/5 487/4/5
f 492/4/5 488/4/5 491/4/5
f 493/4/5 490/4/5 489/4/5
f 494/4/5 490/4/5 493/4/5
f 503/4/5 496/4/5 495/4/5
f 504/4/5 496/4/5 503/4/5
f 505/4/5 498/4/5 497/4/5
f 506/4/5 498/4/5 505/4/5
f 507/4/5 500/4/5 499/4/5
f 508/4/5 500/4/5 507/4/5
f 509/4/5 502/4/5 501/4/5
f 510/4/5 502/4/5 509/4/5
f 513/4/5 512/4/5 511/4/5
f 514/4/5 512/4/5 513/4/5
f 517/4/5 516/4/5 515/4/5
f 518/4/5 516/4/5 517/4/5
f 521/4/5 520/4/5 519/4/5
f 522/4/5 520/4/5 521/4/5
f 525/4/5 524/4/5 523/4/5
f 526/4/5 524/4/5 525/4/5
f 529/4/5 528/4/5 527/4/5
f 530/4/5 528/4/5 529/4/5
f 533/4/5 532/4/5 531/4/5
f 534/4/5 532/4/5 533/4/5
f 537/1/5 536/1/5 535/1/5
f 538/1/5 536/1/5 537/1/5
f 541/1/5 540/1/5 539/1/5
f 542/1/5 540/1/5 541/1/5
f 547/1/5 544/1/5 543/1/5
f 548/1/5 544/1/5 547/1/5
f 549/1/5 546/1/5 545/1/5
f 550/1/5 546/1/5 549/1/5
f 553/1/5 552/1/5 551/1/5
f 554/1/5 552/1/5 553/1/5
f 555/3/6 556/3/6 559/3/6
f 559/3/6 556/3/6 560/3/6
f 557/4/6 558/4/6 561/4/6
f 561/4/6 558/4/6 562/4/6
f 563/4/6 564/4/6 565/4/6
f 565/4/6 564/4/6 566/4/6
f 567/4/6 568/4/6 571/4/6
f 571/4/6 568/4/6 572/4/6
f 569/4/6 570/4/6 573/4/6
f 573/4/6 570/4/6 574/4/6
f 575/4/6 576/4/6 579/4/6
f 579/4/6 576/4/6 580/4/6
f 577/4/6 578/4/6 581/4/6
f 581/4/6 578/4/6 582/4/6
f 583/4/6 584/4/6 585/4/6
f 585/4/6 584/4/6 586/4/6
f 587/4/6 588/4/6 589/4/6
f 589/4/6 588/4/6 590/4/6
f 591/4/6 592/4/6 593/4/6
f 593/4/6 592/4/6 594/4/6
f 595/4/6 596/4/6 597/4/6
f 597/4/6 596/4/6 598/4/6
f 599/4/6 600/4/6 601/4/6
f 601/4/6 600/4/6 602/4/6
f 603/4/6 604/4/6 605/4/6
f 605/4/6 604/4/6 606/4/6
f 607/4/6 608/4/6 611/4/6
f 611/4/6 608/4/6 612/4/6
f 609/4/6 610/4/6 613/4/6
f 613/4/6 610/4/6 614/4/6
f 615/4/6 616/4/6 623/4/6
f 623/4/6 616/4/6 624/4/6
f 617/4/6 618/4/6 625/4/6
f 625/4/6 618/4/6 626/4/6
f 619/4/6 620/4/6 627/4/6
f 627/4/6 620/4/6 628/4/6
f 621/4/6 622/4/6 629/4/6
f 629/4/6 622/4/6 630/4/6
f 631/4/6 632/4/6 633/4/6
f 633/4/6 632/4/6 634/4/6
f 635/4/6 636/4/6 637/4/6
f 637/4/6 636/4/6 638/4/6
f 639/4/6 640/4/6 641/4/6
f 641/4/6 640/4/6 642/4/6
f 643/4/6 644/4/6 645/4/6
f 645/4/6 644/4/6 646/4/6
f 647/4/6 648/4/6 649/4/6
f 649/4/6 648/4/6 650/4/6
f 651/4/6 652/4/6 653/4/6
f 653/4/6 652/4/6 654/4/6
f 655/1/6 656/1/6 657/1/6
f 657/1/6 656/1/6 658/1/6
