# MagicaVoxel @ Ephtracy

# group
o 

# material
mtllib shovel.mtl
usemtl palette

# normals
vn -1 0 0
vn 1 0 0
vn 0 0 1
vn 0 0 -1
vn 0 -1 0
vn 0 1 0

# texcoords
vt 0.369141 0.5
vt 0.978516 0.5
vt 0.994141 0.5

# verts
v -0.4 0.2 -0.2
v -0.4 0.2 -0.3
v -0.4 0.9 -0.2
v -0.4 0.9 -0.3
v -0.3 0.1 -0.2
v -0.3 0.1 -0.3
v -0.3 0.2 -0.2
v -0.3 0.2 -0.3
v -0.2 0 -0.2
v -0.2 0 -0.3
v -0.2 0.1 -0.2
v -0.2 0.1 -0.3
v -0.2 2.4 -0.2
v -0.2 2.4 -0.3
v -0.2 2.6 -0.2
v -0.2 2.6 -0.3
v -0.2 2.7 -0.2
v -0.2 2.7 -0.3
v -0.1 0.9 -0.2
v -0.1 0.9 -0.3
v -0.1 2.4 -0.2
v -0.1 2.4 -0.3
v 0 2.5 -0.2
v 0 2.5 -0.3
v 0 2.6 -0.2
v 0 2.6 -0.3
v -0.1 2.5 -0.2
v -0.1 2.5 -0.3
v -0.1 2.6 -0.2
v -0.1 2.6 -0.3
v 0 0.9 -0.2
v 0 0.9 -0.3
v 0 2.4 -0.2
v 0 2.4 -0.3
v 0.1 0 -0.2
v 0.1 0 -0.3
v 0.1 0.1 -0.2
v 0.1 0.1 -0.3
v 0.1 2.4 -0.2
v 0.1 2.4 -0.3
v 0.1 2.6 -0.2
v 0.1 2.6 -0.3
v 0.1 2.7 -0.2
v 0.1 2.7 -0.3
v 0.2 0.1 -0.2
v 0.2 0.1 -0.3
v 0.2 0.2 -0.2
v 0.2 0.2 -0.3
v 0.3 0.2 -0.2
v 0.3 0.2 -0.3
v 0.3 0.9 -0.2
v 0.3 0.9 -0.3
v -0.4 0.2 -0.2
v -0.4 0.9 -0.2
v -0.3 0.1 -0.2
v -0.3 0.2 -0.2
v -0.2 0 -0.2
v -0.2 0.1 -0.2
v -0.2 2.4 -0.2
v -0.2 2.6 -0.2
v -0.2 2.7 -0.2
v -0.1 0.8 -0.2
v -0.1 0.9 -0.2
v -0.1 2.4 -0.2
v -0.1 2.5 -0.2
v -0.1 2.6 -0.2
v 0 0.8 -0.2
v 0 0.9 -0.2
v 0 2.4 -0.2
v 0 2.5 -0.2
v 0 2.6 -0.2
v 0.1 0 -0.2
v 0.1 0.1 -0.2
v 0.1 2.4 -0.2
v 0.1 2.6 -0.2
v 0.1 2.7 -0.2
v 0.2 0.1 -0.2
v 0.2 0.2 -0.2
v 0.3 0.2 -0.2
v 0.3 0.9 -0.2
v -0.4 0.2 -0.3
v -0.4 0.9 -0.3
v -0.3 0.1 -0.3
v -0.3 0.2 -0.3
v -0.2 0 -0.3
v -0.2 0.1 -0.3
v -0.2 2.4 -0.3
v -0.2 2.6 -0.3
v -0.2 2.7 -0.3
v -0.1 0.8 -0.3
v -0.1 0.9 -0.3
v -0.1 2.4 -0.3
v -0.1 2.5 -0.3
v -0.1 2.6 -0.3
v 0 0.8 -0.3
v 0 0.9 -0.3
v 0 2.4 -0.3
v 0 2.5 -0.3
v 0 2.6 -0.3
v 0.1 0 -0.3
v 0.1 0.1 -0.3
v 0.1 2.4 -0.3
v 0.1 2.6 -0.3
v 0.1 2.7 -0.3
v 0.2 0.1 -0.3
v 0.2 0.2 -0.3
v 0.3 0.2 -0.3
v 0.3 0.9 -0.3
v -0.2 0 -0.2
v 0.1 0 -0.2
v -0.2 0 -0.3
v 0.1 0 -0.3
v -0.3 0.1 -0.2
v -0.2 0.1 -0.2
v 0.1 0.1 -0.2
v 0.2 0.1 -0.2
v -0.3 0.1 -0.3
v -0.2 0.1 -0.3
v 0.1 0.1 -0.3
v 0.2 0.1 -0.3
v -0.4 0.2 -0.2
v -0.3 0.2 -0.2
v 0.2 0.2 -0.2
v 0.3 0.2 -0.2
v -0.4 0.2 -0.3
v -0.3 0.2 -0.3
v 0.2 0.2 -0.3
v 0.3 0.2 -0.3
v -0.2 2.4 -0.2
v -0.1 2.4 -0.2
v 0 2.4 -0.2
v 0.1 2.4 -0.2
v -0.2 2.4 -0.3
v -0.1 2.4 -0.3
v 0 2.4 -0.3
v 0.1 2.4 -0.3
v -0.1 2.6 -0.2
v 0 2.6 -0.2
v -0.1 2.6 -0.3
v 0 2.6 -0.3
v -0.4 0.9 -0.2
v -0.1 0.9 -0.2
v 0 0.9 -0.2
v 0.3 0.9 -0.2
v -0.4 0.9 -0.3
v -0.1 0.9 -0.3
v 0 0.9 -0.3
v 0.3 0.9 -0.3
v -0.1 2.5 -0.2
v 0 2.5 -0.2
v -0.1 2.5 -0.3
v 0 2.5 -0.3
v -0.2 2.7 -0.2
v 0.1 2.7 -0.2
v -0.2 2.7 -0.3
v 0.1 2.7 -0.3

# faces
f 3/2/1 2/2/1 1/2/1
f 4/2/1 2/2/1 3/2/1
f 7/2/1 6/2/1 5/2/1
f 8/2/1 6/2/1 7/2/1
f 11/2/1 10/2/1 9/2/1
f 12/2/1 10/2/1 11/2/1
f 15/1/1 14/1/1 13/1/1
f 16/1/1 14/1/1 15/1/1
f 17/3/1 16/3/1 15/3/1
f 18/3/1 16/3/1 17/3/1
f 21/1/1 20/1/1 19/1/1
f 22/1/1 20/1/1 21/1/1
f 25/1/1 24/1/1 23/1/1
f 26/1/1 24/1/1 25/1/1
f 27/1/2 28/1/2 29/1/2
f 29/1/2 28/1/2 30/1/2
f 31/1/2 32/1/2 33/1/2
f 33/1/2 32/1/2 34/1/2
f 35/2/2 36/2/2 37/2/2
f 37/2/2 36/2/2 38/2/2
f 39/1/2 40/1/2 41/1/2
f 41/1/2 40/1/2 42/1/2
f 41/3/2 42/3/2 43/3/2
f 43/3/2 42/3/2 44/3/2
f 45/2/2 46/2/2 47/2/2
f 47/2/2 46/2/2 48/2/2
f 49/2/2 50/2/2 51/2/2
f 51/2/2 50/2/2 52/2/2
f 56/2/3 54/2/3 53/2/3
f 58/2/3 56/2/3 55/2/3
f 62/2/3 54/2/3 56/2/3
f 62/2/3 56/2/3 58/2/3
f 62/2/3 58/2/3 57/2/3
f 63/2/3 54/2/3 62/2/3
f 64/1/3 60/1/3 59/1/3
f 65/1/3 60/1/3 64/1/3
f 66/3/3 61/3/3 60/3/3
f 66/1/3 60/1/3 65/1/3
f 67/1/3 65/1/3 64/1/3
f 67/1/3 63/1/3 62/1/3
f 67/1/3 64/1/3 63/1/3
f 67/2/3 62/2/3 57/2/3
f 68/1/3 65/1/3 67/1/3
f 69/1/3 65/1/3 68/1/3
f 70/1/3 65/1/3 69/1/3
f 71/3/3 61/3/3 66/3/3
f 72/2/3 67/2/3 57/2/3
f 72/2/3 68/2/3 67/2/3
f 73/2/3 68/2/3 72/2/3
f 74/1/3 70/1/3 69/1/3
f 74/1/3 71/1/3 70/1/3
f 75/3/3 61/3/3 71/3/3
f 75/1/3 71/1/3 74/1/3
f 76/3/3 61/3/3 75/3/3
f 77/2/3 68/2/3 73/2/3
f 78/2/3 68/2/3 77/2/3
f 79/2/3 68/2/3 78/2/3
f 80/2/3 68/2/3 79/2/3
f 81/2/4 82/2/4 84/2/4
f 83/2/4 84/2/4 86/2/4
f 84/2/4 82/2/4 90/2/4
f 86/2/4 84/2/4 90/2/4
f 85/2/4 86/2/4 90/2/4
f 90/2/4 82/2/4 91/2/4
f 87/1/4 88/1/4 92/1/4
f 92/1/4 88/1/4 93/1/4
f 88/3/4 89/3/4 94/3/4
f 93/1/4 88/1/4 94/1/4
f 92/1/4 93/1/4 95/1/4
f 90/1/4 91/1/4 95/1/4
f 91/1/4 92/1/4 95/1/4
f 85/2/4 90/2/4 95/2/4
f 95/1/4 93/1/4 96/1/4
f 96/1/4 93/1/4 97/1/4
f 97/1/4 93/1/4 98/1/4
f 94/3/4 89/3/4 99/3/4
f 85/2/4 95/2/4 100/2/4
f 95/2/4 96/2/4 100/2/4
f 100/2/4 96/2/4 101/2/4
f 97/1/4 98/1/4 102/1/4
f 98/1/4 99/1/4 102/1/4
f 99/3/4 89/3/4 103/3/4
f 102/1/4 99/1/4 103/1/4
f 103/3/4 89/3/4 104/3/4
f 101/2/4 96/2/4 105/2/4
f 105/2/4 96/2/4 106/2/4
f 106/2/4 96/2/4 107/2/4
f 107/2/4 96/2/4 108/2/4
f 111/2/5 110/2/5 109/2/5
f 112/2/5 110/2/5 111/2/5
f 117/2/5 114/2/5 113/2/5
f 118/2/5 114/2/5 117/2/5
f 119/2/5 116/2/5 115/2/5
f 120/2/5 116/2/5 119/2/5
f 125/2/5 122/2/5 121/2/5
f 126/2/5 122/2/5 125/2/5
f 127/2/5 124/2/5 123/2/5
f 128/2/5 124/2/5 127/2/5
f 133/1/5 130/1/5 129/1/5
f 134/1/5 130/1/5 133/1/5
f 135/1/5 132/1/5 131/1/5
f 136/1/5 132/1/5 135/1/5
f 139/3/5 138/3/5 137/3/5
f 140/3/5 138/3/5 139/3/5
f 141/2/6 142/2/6 145/2/6
f 145/2/6 142/2/6 146/2/6
f 143/2/6 144/2/6 147/2/6
f 147/2/6 144/2/6 148/2/6
f 149/1/6 150/1/6 151/1/6
f 151/1/6 150/1/6 152/1/6
f 153/3/6 154/3/6 155/3/6
f 155/3/6 154/3/6 156/3/6
