# MagicaVoxel @ Ephtracy

# group
o 

# material
mtllib Van.mtl
usemtl palette

# normals
vn -1 0 0
vn 1 0 0
vn 0 0 1
vn 0 0 -1
vn 0 -1 0
vn 0 1 0

# texcoords
vt 0.00585938 0.5
vt 0.0136719 0.5
vt 0.0644531 0.5
vt 0.306641 0.5
vt 0.845703 0.5
vt 0.958984 0.5
vt 0.962891 0.5
vt 0.966797 0.5
vt 0.994141 0.5

# verts
v -0.9 0 1.2
v -0.9 0 0.7
v -0.9 0 -0.7
v -0.9 0 -1.2
v -0.9 0.1 1.3
v -0.9 0.1 1.2
v -0.9 0.1 0.7
v -0.9 0.1 0.6
v -0.9 0.1 -0.6
v -0.9 0.1 -0.7
v -0.9 0.1 -1.2
v -0.9 0.1 -1.3
v -0.9 0.2 1.6
v -0.9 0.2 1.4
v -0.9 0.2 1.3
v -0.9 0.2 0.6
v -0.9 0.2 0.5
v -0.9 0.2 -0.5
v -0.9 0.2 -0.6
v -0.9 0.2 -1.3
v -0.9 0.2 -1.4
v -0.9 0.3 0.5
v -0.9 0.3 -0.5
v -0.9 0.3 -1.4
v -0.9 0.3 -1.7
v -0.9 0.5 1.4
v -0.9 0.5 1.3
v -0.9 0.5 0.6
v -0.9 0.5 0.5
v -0.9 0.5 -0.5
v -0.9 0.5 -0.6
v -0.9 0.5 -1.3
v -0.9 0.5 -1.4
v -0.9 0.6 1.3
v -0.9 0.6 1.2
v -0.9 0.6 0.7
v -0.9 0.6 0.6
v -0.9 0.6 -0.6
v -0.9 0.6 -0.7
v -0.9 0.6 -1.2
v -0.9 0.6 -1.3
v -0.9 0.7 1.2
v -0.9 0.7 0.7
v -0.9 0.7 -0.7
v -0.9 0.7 -1.2
v -0.9 0.9 -1.6
v -0.9 0.9 -1.7
v -0.9 1 1.3
v -0.9 1 0.5
v -0.9 1 0.4
v -0.9 1 -0.4
v -0.9 1 -0.5
v -0.9 1 -1.1
v -0.9 1 -1.4
v -0.9 1 -1.6
v -0.9 1.1 -1
v -0.9 1.1 -1.1
v -0.9 1.1 -1.3
v -0.9 1.1 -1.4
v -0.9 1.2 -1.2
v -0.9 1.2 -1.3
v -0.9 1.3 -0.9
v -0.9 1.3 -1
v -0.9 1.4 -1.1
v -0.9 1.4 -1.2
v -0.9 1.6 1.6
v -0.9 1.6 1.5
v -0.9 1.6 1.3
v -0.9 1.6 0.5
v -0.9 1.6 0.4
v -0.9 1.6 -0.4
v -0.9 1.6 -0.5
v -0.9 1.6 -0.9
v -0.9 1.7 1.5
v -0.9 1.7 -1.1
v -0.8 1.7 1.4
v -0.8 1.7 -1
v -0.8 1.8 1.4
v -0.8 1.8 -1
v 0.4 0 1.2
v 0.4 0 0.7
v 0.4 0 -0.7
v 0.4 0 -1.2
v 0.4 0.1 1.3
v 0.4 0.1 1.2
v 0.4 0.1 0.7
v 0.4 0.1 0.6
v 0.4 0.1 -0.6
v 0.4 0.1 -0.7
v 0.4 0.1 -1.2
v 0.4 0.1 -1.3
v 0.4 0.2 1.3
v 0.4 0.2 0.6
v 0.4 0.2 0.5
v 0.4 0.2 -0.5
v 0.4 0.2 -0.6
v 0.4 0.2 -1.3
v 0.4 0.2 -1.4
v 0.4 0.3 1.3
v 0.4 0.3 0.5
v 0.4 0.3 -0.5
v 0.4 0.3 -1.4
v -0.4 0 1.2
v -0.4 0 0.7
v -0.4 0 -0.7
v -0.4 0 -1.2
v -0.4 0.1 1.3
v -0.4 0.1 1.2
v -0.4 0.1 0.7
v -0.4 0.1 0.6
v -0.4 0.1 -0.6
v -0.4 0.1 -0.7
v -0.4 0.1 -1.2
v -0.4 0.1 -1.3
v -0.4 0.2 1.3
v -0.4 0.2 0.6
v -0.4 0.2 0.5
v -0.4 0.2 -0.5
v -0.4 0.2 -0.6
v -0.4 0.2 -1.3
v -0.4 0.2 -1.4
v -0.4 0.3 1.3
v -0.4 0.3 0.5
v -0.4 0.3 -0.5
v -0.4 0.3 -1.4
v 0.8 1.7 1.4
v 0.8 1.7 -1
v 0.8 1.8 1.4
v 0.8 1.8 -1
v 0.9 0 1.2
v 0.9 0 0.7
v 0.9 0 -0.7
v 0.9 0 -1.2
v 0.9 0.1 1.3
v 0.9 0.1 1.2
v 0.9 0.1 0.7
v 0.9 0.1 0.6
v 0.9 0.1 -0.6
v 0.9 0.1 -0.7
v 0.9 0.1 -1.2
v 0.9 0.1 -1.3
v 0.9 0.2 1.6
v 0.9 0.2 1.4
v 0.9 0.2 1.3
v 0.9 0.2 0.6
v 0.9 0.2 0.5
v 0.9 0.2 -0.5
v 0.9 0.2 -0.6
v 0.9 0.2 -1.3
v 0.9 0.2 -1.4
v 0.9 0.3 0.5
v 0.9 0.3 -0.5
v 0.9 0.3 -1.4
v 0.9 0.3 -1.7
v 0.9 0.5 1.4
v 0.9 0.5 1.3
v 0.9 0.5 0.6
v 0.9 0.5 0.5
v 0.9 0.5 -0.5
v 0.9 0.5 -0.6
v 0.9 0.5 -1.3
v 0.9 0.5 -1.4
v 0.9 0.6 1.3
v 0.9 0.6 1.2
v 0.9 0.6 0.7
v 0.9 0.6 0.6
v 0.9 0.6 -0.6
v 0.9 0.6 -0.7
v 0.9 0.6 -1.2
v 0.9 0.6 -1.3
v 0.9 0.7 1.2
v 0.9 0.7 0.7
v 0.9 0.7 -0.7
v 0.9 0.7 -1.2
v 0.9 0.9 -1.6
v 0.9 0.9 -1.7
v 0.9 1 1.3
v 0.9 1 0.5
v 0.9 1 0.4
v 0.9 1 -0.4
v 0.9 1 -0.5
v 0.9 1 -1.1
v 0.9 1 -1.4
v 0.9 1 -1.6
v 0.9 1.1 -1
v 0.9 1.1 -1.1
v 0.9 1.1 -1.3
v 0.9 1.1 -1.4
v 0.9 1.2 -1.2
v 0.9 1.2 -1.3
v 0.9 1.3 -0.9
v 0.9 1.3 -1
v 0.9 1.4 -1.1
v 0.9 1.4 -1.2
v 0.9 1.6 1.6
v 0.9 1.6 1.5
v 0.9 1.6 1.3
v 0.9 1.6 0.5
v 0.9 1.6 0.4
v 0.9 1.6 -0.4
v 0.9 1.6 -0.5
v 0.9 1.6 -0.9
v 0.9 1.7 1.5
v 0.9 1.7 -1.1
v -0.9 0.2 1.6
v -0.9 1.6 1.6
v -0.8 0.4 1.6
v -0.8 0.5 1.6
v -0.8 0.6 1.6
v -0.8 0.8 1.6
v -0.7 0.4 1.6
v -0.7 0.5 1.6
v -0.7 0.6 1.6
v -0.7 0.8 1.6
v -0.7 1 1.6
v -0.7 1.5 1.6
v -0.2 0.3 1.6
v -0.2 0.4 1.6
v -0.2 1 1.6
v -0.2 1.5 1.6
v -0.1 0.6 1.6
v -0.1 1.6 1.6
v 0 0.6 1.6
v 0 1.6 1.6
v 0.2 0.3 1.6
v 0.2 0.4 1.6
v 0.2 1 1.6
v 0.2 1.5 1.6
v 0.7 0.4 1.6
v 0.7 0.5 1.6
v 0.7 0.6 1.6
v 0.7 0.8 1.6
v 0.7 1 1.6
v 0.7 1.5 1.6
v 0.8 0.4 1.6
v 0.8 0.5 1.6
v 0.8 0.6 1.6
v 0.8 0.8 1.6
v 0.9 0.2 1.6
v 0.9 1.6 1.6
v -0.9 1.6 1.5
v -0.9 1.7 1.5
v -0.1 1.6 1.5
v 0 1.6 1.5
v 0.9 1.6 1.5
v 0.9 1.7 1.5
v -0.8 1.7 1.4
v -0.8 1.8 1.4
v 0.8 1.7 1.4
v 0.8 1.8 1.4
v -0.9 0.1 1.3
v -0.9 0.2 1.3
v -0.4 0.1 1.3
v -0.4 0.2 1.3
v 0.4 0.1 1.3
v 0.4 0.2 1.3
v 0.9 0.1 1.3
v 0.9 0.2 1.3
v -0.9 0 1.2
v -0.9 0.1 1.2
v -0.4 0 1.2
v -0.4 0.1 1.2
v 0.4 0 1.2
v 0.4 0.1 1.2
v 0.9 0 1.2
v 0.9 0.1 1.2
v -0.9 0.2 -0.5
v -0.9 0.3 -0.5
v -0.4 0.2 -0.5
v -0.4 0.3 -0.5
v 0.4 0.2 -0.5
v 0.4 0.3 -0.5
v 0.9 0.2 -0.5
v 0.9 0.3 -0.5
v -0.9 0.1 -0.6
v -0.9 0.2 -0.6
v -0.4 0.1 -0.6
v -0.4 0.2 -0.6
v 0.4 0.1 -0.6
v 0.4 0.2 -0.6
v 0.9 0.1 -0.6
v 0.9 0.2 -0.6
v -0.9 0 -0.7
v -0.9 0.1 -0.7
v -0.4 0 -0.7
v -0.4 0.1 -0.7
v 0.4 0 -0.7
v 0.4 0.1 -0.7
v 0.9 0 -0.7
v 0.9 0.1 -0.7
v -0.4 0.2 1.3
v -0.4 0.3 1.3
v 0.4 0.2 1.3
v 0.4 0.3 1.3
v -0.9 0 0.7
v -0.9 0.1 0.7
v -0.4 0 0.7
v -0.4 0.1 0.7
v 0.4 0 0.7
v 0.4 0.1 0.7
v 0.9 0 0.7
v 0.9 0.1 0.7
v -0.9 0.1 0.6
v -0.9 0.2 0.6
v -0.4 0.1 0.6
v -0.4 0.2 0.6
v 0.4 0.1 0.6
v 0.4 0.2 0.6
v 0.9 0.1 0.6
v 0.9 0.2 0.6
v -0.9 0.2 0.5
v -0.9 0.3 0.5
v -0.4 0.2 0.5
v -0.4 0.3 0.5
v 0.4 0.2 0.5
v 0.4 0.3 0.5
v 0.9 0.2 0.5
v 0.9 0.3 0.5
v -0.8 1.7 -1
v -0.8 1.8 -1
v 0.8 1.7 -1
v 0.8 1.8 -1
v -0.9 1.4 -1.1
v -0.9 1.7 -1.1
v -0.7 1.4 -1.1
v -0.7 1.6 -1.1
v 0.7 1.4 -1.1
v 0.7 1.6 -1.1
v 0.9 1.4 -1.1
v 0.9 1.7 -1.1
v -0.9 0 -1.2
v -0.9 0.1 -1.2
v -0.9 1.2 -1.2
v -0.9 1.4 -1.2
v -0.7 1.2 -1.2
v -0.7 1.4 -1.2
v -0.4 0 -1.2
v -0.4 0.1 -1.2
v 0.4 0 -1.2
v 0.4 0.1 -1.2
v 0.7 1.2 -1.2
v 0.7 1.4 -1.2
v 0.9 0 -1.2
v 0.9 0.1 -1.2
v 0.9 1.2 -1.2
v 0.9 1.4 -1.2
v -0.9 0.1 -1.3
v -0.9 0.2 -1.3
v -0.9 1.1 -1.3
v -0.9 1.2 -1.3
v -0.7 1.1 -1.3
v -0.7 1.2 -1.3
v -0.4 0.1 -1.3
v -0.4 0.2 -1.3
v 0.4 0.1 -1.3
v 0.4 0.2 -1.3
v 0.7 1.1 -1.3
v 0.7 1.2 -1.3
v 0.9 0.1 -1.3
v 0.9 0.2 -1.3
v 0.9 1.1 -1.3
v 0.9 1.2 -1.3
v -0.9 0.2 -1.4
v -0.9 0.3 -1.4
v -0.9 1 -1.4
v -0.9 1.1 -1.4
v -0.4 0.2 -1.4
v -0.4 0.3 -1.4
v 0.4 0.2 -1.4
v 0.4 0.3 -1.4
v 0.9 0.2 -1.4
v 0.9 0.3 -1.4
v 0.9 1 -1.4
v 0.9 1.1 -1.4
v -0.9 0.9 -1.6
v -0.9 1 -1.6
v 0.9 0.9 -1.6
v 0.9 1 -1.6
v -0.9 0.3 -1.7
v -0.9 0.9 -1.7
v -0.8 0.5 -1.7
v -0.8 0.6 -1.7
v -0.8 0.8 -1.7
v -0.6 0.5 -1.7
v -0.6 0.6 -1.7
v -0.5 0.6 -1.7
v -0.5 0.8 -1.7
v -0.4 0.4 -1.7
v -0.4 0.8 -1.7
v -0.2 0.3 -1.7
v -0.2 0.4 -1.7
v 0.2 0.3 -1.7
v 0.2 0.4 -1.7
v 0.4 0.4 -1.7
v 0.4 0.8 -1.7
v 0.5 0.6 -1.7
v 0.5 0.8 -1.7
v 0.6 0.5 -1.7
v 0.6 0.6 -1.7
v 0.8 0.5 -1.7
v 0.8 0.6 -1.7
v 0.8 0.8 -1.7
v 0.9 0.3 -1.7
v 0.9 0.9 -1.7
v -0.9 0 1.2
v -0.4 0 1.2
v 0.4 0 1.2
v 0.9 0 1.2
v -0.9 0 0.7
v -0.4 0 0.7
v 0.4 0 0.7
v 0.9 0 0.7
v -0.9 0 -0.7
v -0.4 0 -0.7
v 0.4 0 -0.7
v 0.9 0 -0.7
v -0.9 0 -1.2
v -0.4 0 -1.2
v 0.4 0 -1.2
v 0.9 0 -1.2
v -0.9 0.1 1.3
v -0.4 0.1 1.3
v 0.4 0.1 1.3
v 0.9 0.1 1.3
v -0.9 0.1 1.2
v -0.4 0.1 1.2
v 0.4 0.1 1.2
v 0.9 0.1 1.2
v -0.9 0.1 0.7
v -0.4 0.1 0.7
v 0.4 0.1 0.7
v 0.9 0.1 0.7
v -0.9 0.1 0.6
v -0.4 0.1 0.6
v 0.4 0.1 0.6
v 0.9 0.1 0.6
v -0.9 0.1 -0.6
v -0.4 0.1 -0.6
v 0.4 0.1 -0.6
v 0.9 0.1 -0.6
v -0.9 0.1 -0.7
v -0.4 0.1 -0.7
v 0.4 0.1 -0.7
v 0.9 0.1 -0.7
v -0.9 0.1 -1.2
v -0.4 0.1 -1.2
v 0.4 0.1 -1.2
v 0.9 0.1 -1.2
v -0.9 0.1 -1.3
v -0.4 0.1 -1.3
v 0.4 0.1 -1.3
v 0.9 0.1 -1.3
v -0.9 0.2 1.6
v 0.9 0.2 1.6
v -0.9 0.2 1.4
v -0.4 0.2 1.4
v 0.4 0.2 1.4
v 0.9 0.2 1.4
v -0.9 0.2 1.3
v -0.4 0.2 1.3
v 0.4 0.2 1.3
v 0.9 0.2 1.3
v -0.9 0.2 0.6
v -0.4 0.2 0.6
v 0.4 0.2 0.6
v 0.9 0.2 0.6
v -0.9 0.2 0.5
v -0.4 0.2 0.5
v 0.4 0.2 0.5
v 0.9 0.2 0.5
v -0.9 0.2 -0.5
v -0.4 0.2 -0.5
v 0.4 0.2 -0.5
v 0.9 0.2 -0.5
v -0.9 0.2 -0.6
v -0.4 0.2 -0.6
v 0.4 0.2 -0.6
v 0.9 0.2 -0.6
v -0.9 0.2 -1.3
v -0.4 0.2 -1.3
v 0.4 0.2 -1.3
v 0.9 0.2 -1.3
v -0.9 0.2 -1.4
v -0.4 0.2 -1.4
v 0.4 0.2 -1.4
v 0.9 0.2 -1.4
v -0.4 0.3 1.3
v 0.4 0.3 1.3
v -0.9 0.3 0.5
v -0.4 0.3 0.5
v 0.4 0.3 0.5
v 0.9 0.3 0.5
v -0.9 0.3 -0.5
v -0.4 0.3 -0.5
v 0.4 0.3 -0.5
v 0.9 0.3 -0.5
v -0.9 0.3 -1.4
v -0.4 0.3 -1.4
v 0.4 0.3 -1.4
v 0.9 0.3 -1.4
v -0.2 0.3 -1.6
v 0.2 0.3 -1.6
v -0.9 0.3 -1.7
v -0.2 0.3 -1.7
v 0.2 0.3 -1.7
v 0.9 0.3 -1.7
v -0.9 0.9 -1.6
v 0.9 0.9 -1.6
v -0.9 0.9 -1.7
v 0.9 0.9 -1.7
v -0.9 1 -1.4
v 0.9 1 -1.4
v -0.9 1 -1.6
v 0.9 1 -1.6
v -0.9 1.1 -1.3
v -0.7 1.1 -1.3
v 0.7 1.1 -1.3
v 0.9 1.1 -1.3
v -0.9 1.1 -1.4
v 0.9 1.1 -1.4
v -0.9 1.2 -1.2
v -0.7 1.2 -1.2
v 0.7 1.2 -1.2
v 0.9 1.2 -1.2
v -0.9 1.2 -1.3
v -0.7 1.2 -1.3
v 0.7 1.2 -1.3
v 0.9 1.2 -1.3
v -0.9 1.4 -1.1
v -0.7 1.4 -1.1
v 0.7 1.4 -1.1
v 0.9 1.4 -1.1
v -0.9 1.4 -1.2
v -0.7 1.4 -1.2
v 0.7 1.4 -1.2
v 0.9 1.4 -1.2
v -0.9 1.6 1.6
v -0.1 1.6 1.6
v 0 1.6 1.6
v 0.9 1.6 1.6
v -0.9 1.6 1.5
v -0.1 1.6 1.5
v 0 1.6 1.5
v 0.9 1.6 1.5
v -0.9 1.7 1.5
v 0.9 1.7 1.5
v -0.8 1.7 1.4
v 0.8 1.7 1.4
v -0.8 1.7 -1
v 0.8 1.7 -1
v -0.9 1.7 -1.1
v 0.9 1.7 -1.1
v -0.8 1.8 1.4
v 0.8 1.8 1.4
v -0.8 1.8 -1
v 0.8 1.8 -1

# faces
f 6/9/1 2/9/1 1/9/1
f 7/9/1 2/9/1 6/9/1
f 10/9/1 4/9/1 3/9/1
f 11/9/1 4/9/1 10/9/1
f 15/9/1 8/9/1 7/9/1
f 15/9/1 6/9/1 5/9/1
f 15/9/1 7/9/1 6/9/1
f 16/9/1 8/9/1 15/9/1
f 19/9/1 12/9/1 11/9/1
f 19/9/1 11/9/1 10/9/1
f 19/9/1 10/9/1 9/9/1
f 20/9/1 12/9/1 19/9/1
f 22/9/1 17/9/1 16/9/1
f 22/9/1 16/9/1 15/9/1
f 22/9/1 15/9/1 14/9/1
f 23/9/1 21/9/1 20/9/1
f 23/9/1 20/9/1 19/9/1
f 23/9/1 19/9/1 18/9/1
f 24/9/1 21/9/1 23/9/1
f 26/6/1 14/6/1 13/6/1
f 26/9/1 22/9/1 14/9/1
f 27/9/1 22/9/1 26/9/1
f 28/9/1 22/9/1 27/9/1
f 29/6/1 23/6/1 22/6/1
f 29/9/1 22/9/1 28/9/1
f 30/9/1 24/9/1 23/9/1
f 30/6/1 23/6/1 29/6/1
f 31/9/1 24/9/1 30/9/1
f 32/9/1 24/9/1 31/9/1
f 33/6/1 25/6/1 24/6/1
f 33/9/1 24/9/1 32/9/1
f 34/9/1 28/9/1 27/9/1
f 34/6/1 27/6/1 26/6/1
f 35/9/1 28/9/1 34/9/1
f 36/9/1 28/9/1 35/9/1
f 37/6/1 29/6/1 28/6/1
f 37/9/1 28/9/1 36/9/1
f 37/6/1 30/6/1 29/6/1
f 37/6/1 31/6/1 30/6/1
f 38/9/1 32/9/1 31/9/1
f 38/6/1 31/6/1 37/6/1
f 39/9/1 32/9/1 38/9/1
f 40/9/1 32/9/1 39/9/1
f 41/6/1 33/6/1 32/6/1
f 41/9/1 32/9/1 40/9/1
f 42/9/1 36/9/1 35/9/1
f 42/6/1 35/6/1 34/6/1
f 43/6/1 37/6/1 36/6/1
f 43/9/1 36/9/1 42/9/1
f 43/6/1 38/6/1 37/6/1
f 43/6/1 39/6/1 38/6/1
f 44/9/1 40/9/1 39/9/1
f 44/6/1 39/6/1 43/6/1
f 45/6/1 41/6/1 40/6/1
f 45/9/1 40/9/1 44/9/1
f 46/6/1 33/6/1 41/6/1
f 46/6/1 41/6/1 45/6/1
f 46/6/1 45/6/1 44/6/1
f 46/6/1 25/6/1 33/6/1
f 46/6/1 44/6/1 43/6/1
f 46/6/1 43/6/1 42/6/1
f 47/6/1 25/6/1 46/6/1
f 48/6/1 42/6/1 34/6/1
f 48/6/1 34/6/1 26/6/1
f 48/6/1 46/6/1 42/6/1
f 49/6/1 46/6/1 48/6/1
f 50/6/1 46/6/1 49/6/1
f 51/6/1 46/6/1 50/6/1
f 52/6/1 46/6/1 51/6/1
f 53/6/1 46/6/1 52/6/1
f 54/6/1 46/6/1 53/6/1
f 55/6/1 46/6/1 54/6/1
f 56/4/1 53/4/1 52/4/1
f 57/6/1 54/6/1 53/6/1
f 57/4/1 53/4/1 56/4/1
f 58/6/1 54/6/1 57/6/1
f 59/6/1 54/6/1 58/6/1
f 60/6/1 57/6/1 56/6/1
f 60/6/1 58/6/1 57/6/1
f 61/6/1 58/6/1 60/6/1
f 62/4/1 56/4/1 52/4/1
f 63/6/1 60/6/1 56/6/1
f 63/4/1 56/4/1 62/4/1
f 64/6/1 63/6/1 62/6/1
f 64/6/1 60/6/1 63/6/1
f 65/6/1 60/6/1 64/6/1
f 66/6/1 26/6/1 13/6/1
f 66/6/1 48/6/1 26/6/1
f 67/6/1 48/6/1 66/6/1
f 68/7/1 49/7/1 48/7/1
f 68/6/1 48/6/1 67/6/1
f 69/6/1 50/6/1 49/6/1
f 69/7/1 49/7/1 68/7/1
f 70/7/1 51/7/1 50/7/1
f 70/6/1 50/6/1 69/6/1
f 71/6/1 52/6/1 51/6/1
f 71/7/1 51/7/1 70/7/1
f 72/4/1 62/4/1 52/4/1
f 72/6/1 52/6/1 71/6/1
f 73/6/1 64/6/1 62/6/1
f 73/4/1 62/4/1 72/4/1
f 74/6/1 72/6/1 71/6/1
f 74/6/1 73/6/1 72/6/1
f 74/6/1 68/6/1 67/6/1
f 74/6/1 71/6/1 70/6/1
f 74/6/1 69/6/1 68/6/1
f 74/6/1 70/6/1 69/6/1
f 75/6/1 64/6/1 73/6/1
f 75/6/1 73/6/1 74/6/1
f 78/6/1 77/6/1 76/6/1
f 79/6/1 77/6/1 78/6/1
f 85/9/1 81/9/1 80/9/1
f 86/9/1 81/9/1 85/9/1
f 89/9/1 83/9/1 82/9/1
f 90/9/1 83/9/1 89/9/1
f 92/9/1 87/9/1 86/9/1
f 92/9/1 85/9/1 84/9/1
f 92/9/1 86/9/1 85/9/1
f 93/9/1 87/9/1 92/9/1
f 96/9/1 91/9/1 90/9/1
f 96/9/1 90/9/1 89/9/1
f 96/9/1 89/9/1 88/9/1
f 97/9/1 91/9/1 96/9/1
f 99/9/1 94/9/1 93/9/1
f 99/9/1 93/9/1 92/9/1
f 100/9/1 94/9/1 99/9/1
f 101/9/1 98/9/1 97/9/1
f 101/9/1 97/9/1 96/9/1
f 101/9/1 96/9/1 95/9/1
f 102/9/1 98/9/1 101/9/1
f 103/9/2 104/9/2 108/9/2
f 108/9/2 104/9/2 109/9/2
f 105/9/2 106/9/2 112/9/2
f 112/9/2 106/9/2 113/9/2
f 109/9/2 110/9/2 115/9/2
f 107/9/2 108/9/2 115/9/2
f 108/9/2 109/9/2 115/9/2
f 115/9/2 110/9/2 116/9/2
f 113/9/2 114/9/2 119/9/2
f 112/9/2 113/9/2 119/9/2
f 111/9/2 112/9/2 119/9/2
f 119/9/2 114/9/2 120/9/2
f 116/9/2 117/9/2 122/9/2
f 115/9/2 116/9/2 122/9/2
f 122/9/2 117/9/2 123/9/2
f 120/9/2 121/9/2 124/9/2
f 119/9/2 120/9/2 124/9/2
f 118/9/2 119/9/2 124/9/2
f 124/9/2 121/9/2 125/9/2
f 126/6/2 127/6/2 128/6/2
f 128/6/2 127/6/2 129/6/2
f 130/9/2 131/9/2 135/9/2
f 135/9/2 131/9/2 136/9/2
f 132/9/2 133/9/2 139/9/2
f 139/9/2 133/9/2 140/9/2
f 136/9/2 137/9/2 144/9/2
f 134/9/2 135/9/2 144/9/2
f 135/9/2 136/9/2 144/9/2
f 144/9/2 137/9/2 145/9/2
f 140/9/2 141/9/2 148/9/2
f 139/9/2 140/9/2 148/9/2
f 138/9/2 139/9/2 148/9/2
f 148/9/2 141/9/2 149/9/2
f 145/9/2 146/9/2 151/9/2
f 144/9/2 145/9/2 151/9/2
f 143/9/2 144/9/2 151/9/2
f 149/9/2 150/9/2 152/9/2
f 148/9/2 149/9/2 152/9/2
f 147/9/2 148/9/2 152/9/2
f 152/9/2 150/9/2 153/9/2
f 142/6/2 143/6/2 155/6/2
f 143/9/2 151/9/2 155/9/2
f 155/9/2 151/9/2 156/9/2
f 156/9/2 151/9/2 157/9/2
f 151/6/2 152/6/2 158/6/2
f 157/9/2 151/9/2 158/9/2
f 152/9/2 153/9/2 159/9/2
f 158/6/2 152/6/2 159/6/2
f 159/9/2 153/9/2 160/9/2
f 160/9/2 153/9/2 161/9/2
f 153/6/2 154/6/2 162/6/2
f 161/9/2 153/9/2 162/9/2
f 156/9/2 157/9/2 163/9/2
f 155/6/2 156/6/2 163/6/2
f 163/9/2 157/9/2 164/9/2
f 164/9/2 157/9/2 165/9/2
f 157/6/2 158/6/2 166/6/2
f 165/9/2 157/9/2 166/9/2
f 158/6/2 159/6/2 166/6/2
f 159/6/2 160/6/2 166/6/2
f 160/9/2 161/9/2 167/9/2
f 166/6/2 160/6/2 167/6/2
f 167/9/2 161/9/2 168/9/2
f 168/9/2 161/9/2 169/9/2
f 161/6/2 162/6/2 170/6/2
f 169/9/2 161/9/2 170/9/2
f 164/9/2 165/9/2 171/9/2
f 163/6/2 164/6/2 171/6/2
f 165/6/2 166/6/2 172/6/2
f 171/9/2 165/9/2 172/9/2
f 166/6/2 167/6/2 172/6/2
f 167/6/2 168/6/2 172/6/2
f 168/9/2 169/9/2 173/9/2
f 172/6/2 168/6/2 173/6/2
f 169/6/2 170/6/2 174/6/2
f 173/9/2 169/9/2 174/9/2
f 170/6/2 162/6/2 175/6/2
f 174/6/2 170/6/2 175/6/2
f 173/6/2 174/6/2 175/6/2
f 162/6/2 154/6/2 175/6/2
f 172/6/2 173/6/2 175/6/2
f 171/6/2 172/6/2 175/6/2
f 175/6/2 154/6/2 176/6/2
f 163/6/2 171/6/2 177/6/2
f 155/6/2 163/6/2 177/6/2
f 171/6/2 175/6/2 177/6/2
f 177/6/2 175/6/2 178/6/2
f 178/6/2 175/6/2 179/6/2
f 179/6/2 175/6/2 180/6/2
f 180/6/2 175/6/2 181/6/2
f 181/6/2 175/6/2 182/6/2
f 182/6/2 175/6/2 183/6/2
f 183/6/2 175/6/2 184/6/2
f 181/4/2 182/4/2 185/4/2
f 182/6/2 183/6/2 186/6/2
f 185/4/2 182/4/2 186/4/2
f 186/6/2 183/6/2 187/6/2
f 187/6/2 183/6/2 188/6/2
f 185/6/2 186/6/2 189/6/2
f 186/6/2 187/6/2 189/6/2
f 189/6/2 187/6/2 190/6/2
f 181/4/2 185/4/2 191/4/2
f 185/6/2 189/6/2 192/6/2
f 191/4/2 185/4/2 192/4/2
f 191/6/2 192/6/2 193/6/2
f 192/6/2 189/6/2 193/6/2
f 193/6/2 189/6/2 194/6/2
f 142/6/2 155/6/2 195/6/2
f 155/6/2 177/6/2 195/6/2
f 195/6/2 177/6/2 196/6/2
f 177/7/2 178/7/2 197/7/2
f 196/6/2 177/6/2 197/6/2
f 178/6/2 179/6/2 198/6/2
f 197/7/2 178/7/2 198/7/2
f 179/7/2 180/7/2 199/7/2
f 198/6/2 179/6/2 199/6/2
f 180/6/2 181/6/2 200/6/2
f 199/7/2 180/7/2 200/7/2
f 181/4/2 191/4/2 201/4/2
f 200/6/2 181/6/2 201/6/2
f 191/6/2 193/6/2 202/6/2
f 201/4/2 191/4/2 202/4/2
f 200/6/2 201/6/2 203/6/2
f 201/6/2 202/6/2 203/6/2
f 196/6/2 197/6/2 203/6/2
f 199/6/2 200/6/2 203/6/2
f 197/6/2 198/6/2 203/6/2
f 198/6/2 199/6/2 203/6/2
f 202/6/2 193/6/2 204/6/2
f 203/6/2 202/6/2 204/6/2
f 207/6/3 206/6/3 205/6/3
f 208/6/3 206/6/3 207/6/3
f 209/6/3 206/6/3 208/6/3
f 210/6/3 206/6/3 209/6/3
f 211/6/3 207/6/3 205/6/3
f 211/8/3 208/8/3 207/8/3
f 212/3/3 209/3/3 208/3/3
f 212/8/3 208/8/3 211/8/3
f 213/5/3 210/5/3 209/5/3
f 213/3/3 209/3/3 212/3/3
f 214/6/3 206/6/3 210/6/3
f 214/5/3 210/5/3 213/5/3
f 215/6/3 206/6/3 214/6/3
f 216/6/3 206/6/3 215/6/3
f 217/6/3 213/6/3 212/6/3
f 217/6/3 212/6/3 211/6/3
f 217/6/3 211/6/3 205/6/3
f 217/6/3 215/6/3 214/6/3
f 217/6/3 214/6/3 213/6/3
f 218/6/3 215/6/3 217/6/3
f 219/7/3 216/7/3 215/7/3
f 219/6/3 215/6/3 218/6/3
f 220/6/3 206/6/3 216/6/3
f 220/7/3 216/7/3 219/7/3
f 221/6/3 219/6/3 218/6/3
f 221/6/3 220/6/3 219/6/3
f 222/6/3 206/6/3 220/6/3
f 222/6/3 220/6/3 221/6/3
f 223/6/3 221/6/3 218/6/3
f 223/7/3 222/7/3 221/7/3
f 224/7/3 222/7/3 223/7/3
f 225/1/3 218/1/3 217/1/3
f 225/6/3 217/6/3 205/6/3
f 226/6/3 224/6/3 223/6/3
f 226/1/3 218/1/3 225/1/3
f 226/6/3 223/6/3 218/6/3
f 227/6/3 224/6/3 226/6/3
f 228/6/3 224/6/3 227/6/3
f 229/6/3 226/6/3 225/6/3
f 229/6/3 227/6/3 226/6/3
f 230/6/3 227/6/3 229/6/3
f 231/6/3 227/6/3 230/6/3
f 232/6/3 227/6/3 231/6/3
f 233/7/3 228/7/3 227/7/3
f 233/6/3 227/6/3 232/6/3
f 234/6/3 224/6/3 228/6/3
f 234/7/3 228/7/3 233/7/3
f 235/6/3 229/6/3 225/6/3
f 235/8/3 230/8/3 229/8/3
f 236/3/3 231/3/3 230/3/3
f 236/8/3 230/8/3 235/8/3
f 237/5/3 232/5/3 231/5/3
f 237/3/3 231/3/3 236/3/3
f 238/6/3 233/6/3 232/6/3
f 238/5/3 232/5/3 237/5/3
f 238/6/3 234/6/3 233/6/3
f 239/6/3 225/6/3 205/6/3
f 239/6/3 237/6/3 236/6/3
f 239/6/3 238/6/3 237/6/3
f 239/6/3 235/6/3 225/6/3
f 239/6/3 236/6/3 235/6/3
f 240/6/3 234/6/3 238/6/3
f 240/6/3 238/6/3 239/6/3
f 240/6/3 224/6/3 234/6/3
f 243/6/3 242/6/3 241/6/3
f 244/6/3 242/6/3 243/6/3
f 245/6/3 242/6/3 244/6/3
f 246/6/3 242/6/3 245/6/3
f 249/6/3 248/6/3 247/6/3
f 250/6/3 248/6/3 249/6/3
f 253/9/3 252/9/3 251/9/3
f 254/9/3 252/9/3 253/9/3
f 257/9/3 256/9/3 255/9/3
f 258/9/3 256/9/3 257/9/3
f 261/9/3 260/9/3 259/9/3
f 262/9/3 260/9/3 261/9/3
f 265/9/3 264/9/3 263/9/3
f 266/9/3 264/9/3 265/9/3
f 269/9/3 268/9/3 267/9/3
f 270/9/3 268/9/3 269/9/3
f 273/9/3 272/9/3 271/9/3
f 274/9/3 272/9/3 273/9/3
f 277/9/3 276/9/3 275/9/3
f 278/9/3 276/9/3 277/9/3
f 281/9/3 280/9/3 279/9/3
f 282/9/3 280/9/3 281/9/3
f 285/9/3 284/9/3 283/9/3
f 286/9/3 284/9/3 285/9/3
f 289/9/3 288/9/3 287/9/3
f 290/9/3 288/9/3 289/9/3
f 291/6/4 292/6/4 293/6/4
f 293/6/4 292/6/4 294/6/4
f 295/9/4 296/9/4 297/9/4
f 297/9/4 296/9/4 298/9/4
f 299/9/4 300/9/4 301/9/4
f 301/9/4 300/9/4 302/9/4
f 303/9/4 304/9/4 305/9/4
f 305/9/4 304/9/4 306/9/4
f 307/9/4 308/9/4 309/9/4
f 309/9/4 308/9/4 310/9/4
f 311/9/4 312/9/4 313/9/4
f 313/9/4 312/9/4 314/9/4
f 315/9/4 316/9/4 317/9/4
f 317/9/4 316/9/4 318/9/4
f 319/6/4 320/6/4 321/6/4
f 321/6/4 320/6/4 322/6/4
f 323/6/4 324/6/4 325/6/4
f 325/6/4 324/6/4 326/6/4
f 325/4/4 326/4/4 327/4/4
f 326/6/4 324/6/4 328/6/4
f 327/4/4 326/4/4 328/4/4
f 327/6/4 328/6/4 329/6/4
f 328/6/4 324/6/4 330/6/4
f 329/6/4 328/6/4 330/6/4
f 333/6/4 334/6/4 335/6/4
f 335/6/4 334/6/4 336/6/4
f 331/9/4 332/9/4 337/9/4
f 337/9/4 332/9/4 338/9/4
f 335/4/4 336/4/4 341/4/4
f 341/4/4 336/4/4 342/4/4
f 339/9/4 340/9/4 343/9/4
f 343/9/4 340/9/4 344/9/4
f 341/6/4 342/6/4 345/6/4
f 345/6/4 342/6/4 346/6/4
f 349/6/4 350/6/4 351/6/4
f 351/6/4 350/6/4 352/6/4
f 347/9/4 348/9/4 353/9/4
f 353/9/4 348/9/4 354/9/4
f 351/4/4 352/4/4 357/4/4
f 357/4/4 352/4/4 358/4/4
f 355/9/4 356/9/4 359/9/4
f 359/9/4 356/9/4 360/9/4
f 357/6/4 358/6/4 361/6/4
f 361/6/4 358/6/4 362/6/4
f 363/9/4 364/9/4 367/9/4
f 367/9/4 364/9/4 368/9/4
f 369/9/4 370/9/4 371/9/4
f 371/9/4 370/9/4 372/9/4
f 365/6/4 366/6/4 373/6/4
f 373/6/4 366/6/4 374/6/4
f 375/6/4 376/6/4 377/6/4
f 377/6/4 376/6/4 378/6/4
f 379/6/4 380/6/4 381/6/4
f 381/6/4 380/6/4 382/6/4
f 382/6/4 380/6/4 383/6/4
f 379/6/4 381/6/4 384/6/4
f 381/3/4 382/3/4 384/3/4
f 382/2/4 383/2/4 385/2/4
f 384/3/4 382/3/4 385/3/4
f 384/6/4 385/6/4 386/6/4
f 385/2/4 383/2/4 386/2/4
f 383/6/4 380/6/4 387/6/4
f 386/2/4 383/2/4 387/2/4
f 384/6/4 386/6/4 388/6/4
f 379/6/4 384/6/4 388/6/4
f 386/6/4 387/6/4 388/6/4
f 387/6/4 380/6/4 389/6/4
f 388/6/4 387/6/4 389/6/4
f 379/6/4 388/6/4 390/6/4
f 388/7/4 389/7/4 391/7/4
f 390/6/4 388/6/4 391/6/4
f 390/1/4 391/1/4 392/1/4
f 391/7/4 389/7/4 393/7/4
f 392/1/4 391/1/4 393/1/4
f 392/6/4 393/6/4 394/6/4
f 393/7/4 389/7/4 394/7/4
f 389/6/4 380/6/4 395/6/4
f 394/7/4 389/7/4 395/7/4
f 394/6/4 395/6/4 396/6/4
f 395/6/4 380/6/4 397/6/4
f 396/6/4 395/6/4 397/6/4
f 394/6/4 396/6/4 398/6/4
f 396/2/4 397/2/4 399/2/4
f 398/6/4 396/6/4 399/6/4
f 394/6/4 398/6/4 400/6/4
f 398/3/4 399/3/4 400/3/4
f 399/2/4 397/2/4 401/2/4
f 400/3/4 399/3/4 401/3/4
f 397/6/4 380/6/4 402/6/4
f 401/2/4 397/2/4 402/2/4
f 392/6/4 394/6/4 403/6/4
f 400/6/4 401/6/4 403/6/4
f 401/6/4 402/6/4 403/6/4
f 394/6/4 400/6/4 403/6/4
f 402/6/4 380/6/4 404/6/4
f 403/6/4 402/6/4 404/6/4
f 409/9/5 406/9/5 405/9/5
f 410/9/5 406/9/5 409/9/5
f 411/9/5 408/9/5 407/9/5
f 412/9/5 408/9/5 411/9/5
f 417/9/5 414/9/5 413/9/5
f 418/9/5 414/9/5 417/9/5
f 419/9/5 416/9/5 415/9/5
f 420/9/5 416/9/5 419/9/5
f 425/9/5 422/9/5 421/9/5
f 426/9/5 422/9/5 425/9/5
f 427/9/5 424/9/5 423/9/5
f 428/9/5 424/9/5 427/9/5
f 433/9/5 430/9/5 429/9/5
f 434/9/5 430/9/5 433/9/5
f 435/9/5 432/9/5 431/9/5
f 436/9/5 432/9/5 435/9/5
f 441/9/5 438/9/5 437/9/5
f 442/9/5 438/9/5 441/9/5
f 443/9/5 440/9/5 439/9/5
f 444/9/5 440/9/5 443/9/5
f 449/9/5 446/9/5 445/9/5
f 450/9/5 446/9/5 449/9/5
f 451/9/5 448/9/5 447/9/5
f 452/9/5 448/9/5 451/9/5
f 455/6/5 454/6/5 453/6/5
f 456/6/5 454/6/5 455/6/5
f 457/6/5 454/6/5 456/6/5
f 458/6/5 454/6/5 457/6/5
f 459/9/5 456/9/5 455/9/5
f 460/6/5 457/6/5 456/6/5
f 460/9/5 456/9/5 459/9/5
f 461/9/5 458/9/5 457/9/5
f 461/6/5 457/6/5 460/6/5
f 462/9/5 458/9/5 461/9/5
f 467/9/5 464/9/5 463/9/5
f 468/9/5 464/9/5 467/9/5
f 469/9/5 466/9/5 465/9/5
f 470/9/5 466/9/5 469/9/5
f 475/9/5 472/9/5 471/9/5
f 476/9/5 472/9/5 475/9/5
f 477/9/5 474/9/5 473/9/5
f 478/9/5 474/9/5 477/9/5
f 483/9/5 480/9/5 479/9/5
f 484/9/5 480/9/5 483/9/5
f 485/9/5 482/9/5 481/9/5
f 486/9/5 482/9/5 485/9/5
f 490/6/5 488/6/5 487/6/5
f 491/6/5 488/6/5 490/6/5
f 493/6/5 490/6/5 489/6/5
f 493/6/5 492/6/5 491/6/5
f 493/6/5 491/6/5 490/6/5
f 494/6/5 492/6/5 493/6/5
f 495/6/5 492/6/5 494/6/5
f 496/6/5 492/6/5 495/6/5
f 498/6/5 495/6/5 494/6/5
f 499/6/5 495/6/5 498/6/5
f 501/6/5 498/6/5 497/6/5
f 501/6/5 500/6/5 499/6/5
f 501/6/5 499/6/5 498/6/5
f 502/6/5 500/6/5 501/6/5
f 503/6/5 501/6/5 497/6/5
f 504/1/5 502/1/5 501/1/5
f 504/6/5 501/6/5 503/6/5
f 505/6/5 500/6/5 502/6/5
f 505/1/5 502/1/5 504/1/5
f 506/6/5 500/6/5 505/6/5
f 507/6/6 508/6/6 509/6/6
f 509/6/6 508/6/6 510/6/6
f 511/6/6 512/6/6 513/6/6
f 513/6/6 512/6/6 514/6/6
f 515/6/6 516/6/6 519/6/6
f 517/6/6 518/6/6 519/6/6
f 516/6/6 517/6/6 519/6/6
f 519/6/6 518/6/6 520/6/6
f 521/6/6 522/6/6 525/6/6
f 522/4/6 523/4/6 526/4/6
f 525/6/6 522/6/6 526/6/6
f 523/6/6 524/6/6 527/6/6
f 526/4/6 523/4/6 527/4/6
f 527/6/6 524/6/6 528/6/6
f 529/6/6 530/6/6 533/6/6
f 530/4/6 531/4/6 534/4/6
f 533/6/6 530/6/6 534/6/6
f 531/6/6 532/6/6 535/6/6
f 534/4/6 531/4/6 535/4/6
f 535/6/6 532/6/6 536/6/6
f 537/6/6 538/6/6 541/6/6
f 538/7/6 539/7/6 542/7/6
f 541/6/6 538/6/6 542/6/6
f 539/6/6 540/6/6 543/6/6
f 542/7/6 539/7/6 543/7/6
f 543/6/6 540/6/6 544/6/6
f 545/6/6 546/6/6 547/6/6
f 547/6/6 546/6/6 548/6/6
f 545/6/6 547/6/6 549/6/6
f 548/6/6 546/6/6 550/6/6
f 545/6/6 549/6/6 551/6/6
f 549/6/6 550/6/6 551/6/6
f 550/6/6 546/6/6 552/6/6
f 551/6/6 550/6/6 552/6/6
f 553/6/6 554/6/6 555/6/6
f 555/6/6 554/6/6 556/6/6
